<?xml version="1.0" encoding="UTF-8"?>
<!DOCTYPE svg PUBLIC "-//W3C//DTD SVG 1.1//EN" "http://www.w3.org/Graphics/SVG/1.1/DTD/svg11.dtd">
<!-- Creator: CorelDRAW -->
<svg xmlns="http://www.w3.org/2000/svg" xml:space="preserve" width="270.933mm" height="270.933mm" version="1.1" style="shape-rendering:geometricPrecision; text-rendering:geometricPrecision; image-rendering:optimizeQuality; fill-rule:evenodd; clip-rule:evenodd"
viewBox="0 0 27093.32 27093.32"
 xmlns:xlink="http://www.w3.org/1999/xlink"
 xmlns:xodm="http://www.corel.com/coreldraw/odm/2003">
 <defs>
  <style type="text/css">
   <![CDATA[
    .str1 {stroke:#3A4158;stroke-width:26.45;stroke-miterlimit:22.9256}
    .str0 {stroke:#3A4158;stroke-width:7.62;stroke-miterlimit:22.9256}
    .fil3 {fill:none}
    .fil11 {fill:none;fill-rule:nonzero}
    .fil9 {fill:#3A4158}
    .fil0 {fill:#3A4158}
    .fil2 {fill:black}
    .fil5 {fill:#121111}
    .fil7 {fill:#212423}
    .fil8 {fill:#252525}
    .fil6 {fill:#494A4A}
    .fil4 {fill:#FBFCFC}
    .fil1 {fill:#FDFEFE}
    .fil10 {fill:#3A4158;fill-rule:nonzero}
   ]]>
  </style>
 </defs>
 <g id="Camada_x0020_1">
  <metadata id="CorelCorpID_0Corel-Layer"/>
  <path class="fil0" d="M21479.53 15699.37c572.06,182.89 1151.36,878.87 1126.28,1497.07 15.78,0 16.16,11.42 16.17,24.26l2.54 -12.55c1.08,-5.41 0.97,-13.28 5.21,-13.38 28.77,-0.68 85.93,1.18 151.88,-2.67 5.17,2.09 17.95,-1.65 21.63,5.07 33.28,60.78 2.86,299.9 19.74,347.63 0.73,2.06 1.89,4.27 2.72,6.23l18.04 35.7c9.37,18.62 12.2,27.56 32.19,39.45 5.32,3.17 12.63,6.57 18.37,8.5 18.42,6.19 7.69,4.02 30.17,5.66 17.18,1.25 44.78,-0.29 63.09,-0.4 51.19,-0.31 332.83,9.75 365.79,-1.48 24.5,-8.35 9.51,7.91 19.35,-16.47 44.38,-17.91 2.12,-95.85 -0.32,-125.06 -1.98,-23.74 3.24,-57.23 -0.11,-80.49 -8.43,-58.58 -14.79,6.04 -18.13,-71.43 -2.23,-51.99 10.55,-116.72 -5.57,-164.59 -16.54,-49.08 -11.69,-96.76 -11.69,-149.52 84.54,0 176.99,3.7 260.41,0.69 47.62,-1.72 78.25,-15 98.51,-53.75 1.26,-2.41 4.43,-9.8 5.62,-12.29 9.57,-20.14 19.63,-40.05 29.52,-60.03 60.42,0 182.32,-12.07 238.05,3.75l25.47 10.37c18.66,5.12 21.02,3.79 40.98,3.79l10.93 78.62c0.74,2.14 1.68,4.41 2.4,6.57 20.79,62.39 60.63,68.75 76.23,111.84l179.12 0c10.3,-25.54 38.2,-9.2 76.49,-48.89 10.2,-10.57 14.03,-14.82 22.07,-22.71 5.38,-5.29 35.93,-35.21 38.77,-41.83 10.94,-25.52 1.43,-17.23 6.57,-38.21 6.77,-27.57 -8.01,-17.26 17.31,-27.48 10.96,-27.17 -11.63,-19.03 98.99,-18.47l74.96 14.75c13.62,3.95 16.58,4.16 31.9,4.89 16.14,0.77 35.7,-0.2 50.77,-4.19l58.46 -49.08c1.54,-2.14 6.44,-7.8 7.99,-9.93 16.03,-22.07 16.3,-3.01 17.25,-45.44l483.62 0 0 89.56 376.15 0c0,-100.51 -10.64,-78.04 17.91,-89.56 6.98,-17.31 -15.74,-19.91 35.82,-19.91 51.56,0 28.84,2.6 35.82,19.91l35.83 0c9.72,-24.09 -5.34,-8.64 19.35,-16.47 59.97,-19.03 154.34,12.16 218.89,-5.02 88.69,-23.6 112.09,-37.49 147.55,-121.12 19.1,-45.03 16.15,-151.4 -0.16,-198.24 -0.74,-2.1 -1.84,-4.29 -2.58,-6.38l-6.72 -20.15c-0.72,-2.26 -1.22,-4.74 -1.96,-7l-12.42 -32.35c-14.04,-28.8 -34.66,-48.6 -62.52,-62.87l-56.93 -14.71c-112.46,-4.06 -236.15,0.69 -349.97,0.69l0 -197.03c-24.23,-8.77 -75.54,-45.11 -87.4,-64.86 -1.38,-2.29 -4.82,-9.4 -6.01,-11.89 -6.21,-17.71 -12.38,-35.41 -18.5,-53.15l-7.58 -19.29c-17.46,-54.92 -0.56,-134.26 -5.56,-191.47 -6.5,-74.52 -9.23,0.89 -17.64,-62.96 -6.54,-49.6 -0.76,-64.53 -24.4,-109.94 -8.38,-16.08 2.2,4.37 -6.05,-11.87l-128.37 -256.73c-40.05,-80.62 -55.66,-65.6 -56.73,-113.43l89.56 0 53.74 53.73 0 89.56c27.06,10.93 15.44,32 18.85,61.75 4.05,35.38 0.58,13.6 10.34,34.45l36.22 71.24c6.89,14.09 12.84,27.28 23.46,39.23 2.66,2.99 20.82,17.63 24.74,20.05l59.23 39.28 90.45 34.92c33.37,8.89 76.8,3.58 112.85,3.58 6.31,17.44 5.22,11.94 8.48,18.39l5.94 11.98c19.35,31.8 28.39,14.19 39.32,41.28l71.65 0 94.14 -111.84c13,-39.07 17.58,-94.91 13.67,-139.26 -4.58,-51.92 -5.66,-22.8 -12.03,-41.72 -11.33,-33.66 -4.43,-55.12 -5.57,-92.93 -0.97,-32.15 -9.63,-45.25 -21.19,-68.37l-11.61 -24.22c-8.75,-14.88 -1.5,-6.2 -11.1,-15.77l-52.41 -28.19c-13.2,-7.64 -3.25,-1.56 -15.93,-10.94 -34.55,-25.57 5.76,-8.46 -31.71,-22.02l0 -107.48c-28.96,-11.69 -16.01,-22.76 -39.93,-49.62 -23.82,-26.75 -55.61,-47.05 -85.45,-57.85l0 -35.82c36.54,-13.23 -13.07,13.17 12.26,-5.65 3.54,-2.63 14.03,-11.8 14.45,-12.42 1.1,-1.58 2.3,-3.95 3.22,-5.73 36.22,-70.07 -24.41,-9.95 82.32,-114.72 8.25,-8.1 18.93,-19.18 25.16,-28.57l18.34 -35.43c16.87,-48.63 1.78,-88.39 -18.69,-131.57l-5.43 -12.48c-5.42,-14.22 -2.34,-7.79 -6.25,-20.62l-95.78 -235.59c-0.77,-2.06 -1.74,-4.39 -2.57,-6.39 -40.98,-81.43 -82.12,-162.8 -122.8,-244.38 -17.75,-35.9 -35.79,-71.66 -53.75,-107.46 -20.2,-31.09 -51.1,-66.51 -63.32,-97.89 -16.26,-41.74 19.65,-17.72 -20.01,-33.72l0 -17.91c69.36,-1.55 -1.05,-13.97 80.16,-18.78 88.82,-5.26 72.3,-2.88 81.04,18.78l35.82 0c9.42,-23.34 -0.57,-13.02 26.83,-17.96 43.1,-7.78 77.62,6.49 109.22,-25.11 1.31,-1.31 3.05,-3.31 4.23,-4.73 25.98,-31.12 26.1,-73.4 12.06,-113.41 -17.45,-49.68 -9.23,-81.41 -35.77,-143.44l-105.12 -279.98c-2.55,-3.94 -17.06,-22.14 -19.32,-25.45 -2.55,-3.71 -4.55,-7.26 -6.84,-11.08l-150.37 -172.03c-40.27,-78.14 15.46,-204.46 -36.17,-357.9l-58.33 -174.53c-0.82,-1.94 -1.96,-4.22 -2.84,-6.11l-47.9 -113.3c-23.36,-46.72 -42.95,-83.28 -83.73,-122.27 -16.96,-16.21 -6.72,-2.61 -22.11,-22.67l-98.74 -98.28c-30.75,-24.89 -63.03,-25.61 -98.78,-35.57l-19.45 -7.58c-28.27,-9.29 -48.46,-9.37 -77.44,-0.33 -33.82,10.56 -49.65,5.38 -59.63,30.1l-53.74 0c-8.15,-22.53 -18.56,-26.22 -35.81,-35.83 -25.76,-14.36 -20.37,-13.24 -36.08,-35.58 -12.28,-17.46 0.87,-5.97 -17.09,-18.73l-24.37 -11.45c-54.72,-19.79 -110.21,-25.54 -161.99,-52.95 -45.63,-24.15 -33.64,-28.51 -60.76,-109.4l-33.22 -119.02c-0.51,-1.14 -11.91,-21.92 -12.71,-23.13 -11.05,-16.68 -20.1,-22.9 -34.63,-37.01 -14.6,-14.19 -3.55,-0.33 -17.41,-18.41l-42.91 -46.65c-1.6,-1.08 -3.99,-2.29 -5.56,-3.4l-60.7 -55.73c-18.13,-8.06 -5.44,-5.34 -29.94,-5.89l0 -89.56c-23.35,-8.98 -9.85,1.33 -6.78,-23.4l-17.25 -77.91c-1.01,-2.7 -4.07,-10.19 -5.23,-12.72 -16.85,-37.17 -27.29,-40.58 -45.4,-71.02l-74.52 -77.74c-18.13,-8.05 -5.43,-5.34 -29.93,-5.88l0 -125.39c-31.23,-12.6 -10.38,-2.87 -22.66,-40.03l-21.95 -67.61c-0.82,-1.96 -1.94,-4.24 -2.81,-6.15l-26.91 -53.69c-2.18,-3.78 -4.3,-7.51 -6.83,-11.08 -8.49,-9.57 -16.57,-19.09 -25.8,-27.94l-36.27 -26.42c-3.75,-2.2 -7.78,-4.04 -11.5,-6.41l-5.4 -3.55c-33.67,-23.04 -3.61,-13.74 -36.9,-25.79l0 -197.03c-28.97,-11.7 -11.09,-2.68 -27.22,-35.48l-14.83 -29.94c-15.33,-24.22 -29.99,-47.49 -53.14,-63.29 -3.44,-2.35 -7.75,-4.27 -11.21,-6.71 -37.85,-26.7 -76,-67.63 -96.96,-109.19l-18.56 -35.68c-12.75,-32.1 -2.54,-16.72 0.99,-30.68 7.49,-29.58 -5.65,-56.99 -16.29,-87.68l-40.94 -120.27 -57.39 -59.03c-9.64,-9.78 -17.5,-17.73 -28.99,-24.76 -38.22,-23.36 -63.68,-38.81 -66.04,-104.12 -1.84,-50.99 8.93,-120.94 -0.76,-169.4 -5.21,-26.09 -2.88,-10.78 -6.82,-20.05 -12.14,-23.61 -24.74,-47.26 -36.37,-71.1l-130.1 -147.53c-13.88,-11.09 -3.34,-6.68 -22.29,-13.54l0 -214.94c-31.79,-12.83 -9.81,-3.15 -22.28,-40.41l-67.36 -102.8c-21.84,-28.99 -40.78,-17.74 -54.3,-62.12l-12.52 -41.22c-15.95,-48.72 11.24,-26.36 -22.65,-40.04l0 -35.82c23.91,-9.65 19.38,-33.16 19.12,-62.52 -0.4,-45.08 -9.3,-58.58 -25.36,-92.46l-11.67 -33.1c-0.7,-2.32 -1.16,-4.79 -1.87,-7.09 -21.25,-69.05 -72.84,-117.84 -130.18,-156.41 -1.61,-1.08 -4.06,-2.21 -5.67,-3.29l-30.48 -32.21c-0.92,-1.89 -1.84,-4.3 -2.67,-6.3l-20.28 -60.98c-0.39,-1.76 -1.16,-4.36 -1.38,-6.07l1.72 -70.05c17.24,-70.72 6.44,-90.44 -10.32,-155.04 -3.05,-8.77 -6.44,-17.73 -9.27,-26.55 -23.74,-73.57 -23.98,-31.02 -75.53,-130.45 -11.35,-21.89 -16.16,-27.8 -36.49,-35.16l0 -35.83c25.54,-10.31 16.62,7.92 19.25,-43.79 2.12,-41.49 -11.68,-76.38 -18.14,-109.57 -1.82,-9.37 -0.96,-13.35 -3.22,-23.64l-56.07 -105.14c-45.7,-46.06 -35.21,-77.86 -43.41,-135.74 -5.8,-40.99 25.05,-97.37 38.9,-137.38l33.44 -185.03c-9.91,-39.54 -2.13,-76.79 -20.98,-114.03l-54.05 -89.24c-24.43,-40.67 -57.22,-80.44 -98.96,-107.02 -9.41,-5.21 -19.63,-10.25 -28.39,-16.39l-59.33 -30.23c-45.1,-15.14 -136.99,-23.09 -186.52,-7.19l-65.08 15.52c-2.31,0.63 -4.63,1.39 -6.83,2.13l-86.79 47.55c-8.67,7.64 -19.7,21.68 -30.69,32.01 -47.03,44.25 -29.16,-3.53 -73.82,69.47 -16.51,26.99 -46.56,43.81 -62.67,71.66 -1.35,2.33 -4.8,9.44 -6.03,11.88l-56.68 113.49c-50.46,75.69 -26.08,68.37 -68.2,137.79l-7.18 10.73c-0.87,1.2 -8.21,8.56 -12.32,14.54 -10.43,15.12 -5.06,4.15 -11.95,23.88l-25.33 64.23c-20.23,39.49 -74.39,148.93 -107.55,214.86l-125.62 232.62c-7.9,15.99 -15.65,32.18 -23.4,48.25 -3.41,6.88 -8.11,16.74 -12.44,23.38l-193.75 352.56c-2.95,6.01 -5.78,12.12 -8.75,18.12l-35.81 53.75c-1.05,1.62 -2.41,3.87 -3.4,5.55 -9.07,17.9 -17.87,35.92 -26.63,53.97 -97.78,177.01 -194.96,354.34 -292.39,531.56 -1.22,2.45 -4.56,9.67 -5.87,12.04l-26.28 36.41c-1.1,1.55 -2.62,3.69 -3.67,5.29 -16.96,33.74 -34.31,67.46 -50.86,101.39l-38.7 59.82c-1.05,1.62 -2.4,3.87 -3.4,5.55 -14.1,27.82 -27.66,55.95 -41.46,83.92 -2.26,3.81 -4.52,7.23 -7.08,10.84l-191.23 337.16c-8.88,11.84 -6.39,7.35 -14.15,21.68l-333.76 579.74c-6.89,10.56 -12.71,23.93 -18.24,35.49l-122.33 209.04c-29.04,49.16 -56,97.51 -88.6,144.23 -104.21,180.87 -247.59,418.99 -323.49,608.01 -132.13,329.11 108.47,435.05 114.24,489.71 -680.2,-23.62 -62.28,-980.31 123.59,-1228.13l228.14 -407.74c7.81,-16.01 15.82,-31.94 23.73,-47.91l110.81 -184.73c1.31,-2.38 4.65,-9.59 5.87,-12.05l89.57 -161.19c1.04,-1.6 2.57,-3.74 3.67,-5.29l94.42 -156.35c3.38,-5.52 6.06,-11.72 9.62,-17.24l29.71 -41.94c0.97,-1.77 2.05,-4.16 2.98,-5.98 8.76,-18.06 17.34,-36.36 26.28,-54.32l110.86 -184.68c1.01,-1.71 2.2,-4.04 3.16,-5.8l23.8 -47.85c1.73,-2.65 18.34,-23.14 19.71,-25.07l84.36 -148.49c7.59,-12.84 1.62,-3.39 10.99,-15.88l19.19 -25.59c1.36,-2.31 4.88,-9.35 6.12,-11.79l71.31 -125.72c14.66,-24 29.08,-48.51 44.3,-72.12l12.94 -22.89c4.86,-7.51 4.81,-6.54 11.48,-15.39l95.67 -164.05c1.2,-2.48 4.42,-9.81 5.62,-12.29 0.26,-0.52 8.24,-16.66 8.97,-17.9l262.56 -436c1.23,-2.45 4.75,-9.48 6.12,-11.79l39.21 -59.31c12.78,-25.83 26.27,-51.31 39.5,-76.92 0.28,-0.39 8.58,-10.03 12.12,-14.75 34.36,-45.81 -25.46,40.54 7.59,-10.33l435.98 -737.24c12.76,-31.24 -16.78,-12.68 18.04,-26.74l0 -53.73c-23.28,-6.18 -9.99,3.32 -17.91,-17.91l-53.74 0c-11,27.25 -38.09,22.44 -73.67,33.79l-117.53 43.68c-30.71,19.58 -46.46,54.64 -67.59,84.66l-38.14 70.72c-1.66,3.84 -10.44,-10.99 -7.54,27.35 3.5,46.19 -7.74,16.04 17.88,26.38l0 125.39 -136.82 185.59c-7.18,11.09 -3.53,7.27 -9.63,17.23l-6.87 11.04c-1.51,2.18 -6.34,7.9 -7.91,10 -8.5,11.28 -5.73,6.07 -11.66,15.22 -4.28,6.61 -9,16.51 -12.37,23.45l-252.65 401.14c-1.09,1.55 -2.62,3.69 -3.66,5.29l-103.66 173.97c-2.55,3.69 -4.56,7.26 -6.87,11.04l-118.66 185.84c-1.09,1.56 -2.62,3.69 -3.66,5.3l-119.67 202.74c-12.68,25.45 0.92,-11.64 -11.94,23.89l-11159.07 0c-11.42,31.57 -4.16,5.48 -25.79,36.89l-228.13 345.05c-1.02,1.67 -2.25,4.01 -3.31,5.65 -149.97,220.67 -299.83,440.79 -447.79,662.74 -5.69,8.82 -3.74,5 -11.45,15.42l-221.88 256.09c-1.02,1.67 1.06,-1.63 0,0 56.61,303.71 109.54,1345.05 114.41,1347.02 11.12,27.56 -12.26,18.81 98.47,17.95 88.96,-0.69 153.98,-8.88 237.21,13.57 45.68,12.31 1459.47,1913.01 1527.15,2099.98l-1343.38 0c-514.88,-1136.84 -972.35,-2355.4 -1397.13,-3528.62 -357.07,0 -361.73,-0.56 -246.53,345.04 47.64,153.31 227.41,739.86 246.53,747.58 0,465.11 -242.49,1760.69 -248.21,1743.85 -221.84,-652.75 -200.75,-2646.08 -563.96,-3224.4 -455.96,-32.93 -707.8,-61.28 -707.11,-24.32 0.79,42.51 -3.22,36.25 -3.22,107.75 -1084.96,0 -2097.98,-89.8 -3188,18.22l-116.88 35.37c-2.28,0.71 -4.75,1.22 -7.01,1.94 -93.53,55.01 -212.71,110.54 -288.39,186.28 -88.39,88.43 -130.73,136.9 -203.27,235.57 -211.02,332.1 -81.86,141.86 -158.9,441.14 -232.58,593.5 -491.64,1247.58 -712.54,1857.81 -56.29,0 -34.63,-4 -73.18,-16.56 -43.9,-14.3 -104.28,-0.4 -127.53,39.75 -7.65,16.27 -15.24,32.36 -23.19,48.45 -78.35,158.21 -157.4,203.25 -289.92,301.17 -6.38,4.39 -4.96,2.11 -10.83,7.09 -56.87,76.28 -141.43,212.16 -120.58,309.75 5.83,27.27 -5.23,17.32 18.32,26.82 8.65,21.45 26.13,18.81 52.74,18.91 77.51,0.29 318.3,10.65 370.93,-7.24 55.1,-18.73 69.42,-9.78 113.68,6.24l0 35.83c-101.63,2.27 -551.74,60.43 -631.79,138.42 -31.85,30.71 -27.12,55.51 -40.09,94.25 -6.25,356.06 -72.03,1004.06 -26.29,1334.22l28.78 87.64c2.84,8.66 6.91,26.16 10.37,34.41 11.85,28.19 21.9,20.3 32.11,48.5l376.14 0 0 89.56c-9.7,0 -27.43,-1.1 -36.14,-0.32 -18.97,1.71 0.93,-1.49 -15.81,2.1 -27.48,5.89 -11.31,4.19 -19.69,7.18 -66.62,23.76 -262.35,16.63 -400.64,56.11 -84.99,38 -140.07,129.01 -161.18,214.96 -42.56,133.81 19.38,678.75 -17.59,788.46l-12.2 68.4c0.15,54.31 -10.09,123.74 4.24,175.92l49.59 138.48c0.95,1.77 2.1,4.13 3.09,5.85 15.84,27.34 47.68,52.69 68.94,74.36l134.2 80.74c2.24,0.73 4.7,1.29 6.94,2.03 8.84,2.92 17.33,6.41 26,9.81 27.79,8.84 51.19,6.45 83.99,5.57 30.87,-0.83 60.86,-7.68 71.32,18.24l71.65 0c0.89,40 22.58,43 51.54,55.93 24.13,10.77 9.31,-11.03 20.11,15.72l232.85 0 53.3 197.46 90.76 79.41c97.4,16.94 1083.73,95.9 1227.64,-24.66 44.36,-63.84 61.24,-57.68 61.24,-144.74 142.89,0 492.13,-40.11 600.28,-18.13 27.23,5.53 17.17,-5.34 26.64,18.13 195.18,78.77 -63.34,869.6 1022.08,1271.61 -35.15,-47 -300.17,-211.39 -322.83,-261.81 -203.1,-451.84 -459.81,-555.09 -459.81,-1159.01 0,-833.07 704,-1508.4 1572.42,-1508.4 868.42,0 1572.42,675.33 1572.42,1508.4 0,60.55 -3.82,120.23 -11.06,178.91 42.68,123.41 252.15,132 531.56,221.06l949.32 0c12.33,34.05 2.68,2.37 25.76,36.94l3.5 5.45c30.47,49.64 10.18,33.48 71.23,54.16 2.12,0.73 4.31,1.81 6.43,2.53 65.7,22.18 738.85,8.4 833.46,8.4l7102.03 0c67.69,0 166.13,-6.47 221.5,11.35 12.92,4.16 2.49,5.96 29.27,6.56l0 107.47c24.17,9.75 4.91,-1.22 18,17.82 8.9,17.96 17.97,35.89 26.64,53.96 21.3,44.28 56.23,85.39 104.13,101.86 75.89,26.09 172.05,8.78 245.61,-21.07l12.34 -5.57c11.68,-5.73 8.37,-3.78 17.26,-9.61 18.31,-11.98 28.34,-26.11 41.39,-39.21l24.48 -20.31c1.66,-1.04 4.07,-2.18 5.78,-3.17l117.82 -123.99c10.08,-12.9 2.58,-3.2 10.45,-16.42 1.02,-1.71 2.08,-4.14 3.09,-5.86l29.28 -42.37c21.66,-33.59 46.36,-62.75 60.2,-101 59.82,0 119.64,-0.26 179.45,0.33 10.84,0.1 34.27,0.67 44.02,-0.76 51.08,-7.47 8.75,-2.91 33.53,-11.26 28.67,-9.66 49.23,-6.23 83.33,-6.23l0 17.92c27.67,11.17 14.3,13.78 25.04,46.6 0.72,2.17 1.65,4.42 2.34,6.62l21.95 85.52c2.95,8.82 3.43,12.22 6.19,20.68l31.05 67.46c22.98,45.72 45.83,91.53 68.66,137.33l110.39 167.24c1.01,1.72 2.06,4.16 3.06,5.9l6.22 11.69c29.94,47.69 206.83,211.6 244.17,248.4 179.03,119.92 286.1,182.01 488.71,263.59 232.81,77.97 914.6,212.18 1159.93,73.94 -1399.81,-1072.45 -210.42,-3208.05 1491.78,-2735.18zm-2119.07 -423.83c-1.09,48.77 -13.12,49.55 -26.87,89.56 -4.64,13.57 -8.67,27.17 -12.85,40.89 -0.75,2.14 -1.53,4.53 -2.34,6.62l-58.85 156.08c-12.98,37.94 -25.48,76.05 -38.16,114.1 -4.09,12.28 -7.37,23.96 -10.79,33.98 -2.25,6.6 -4.9,13.12 -7.12,19.75 -1.51,4.56 -2.77,9.15 -4.23,13.68l-47.51 122.66c-0.8,2.08 -1.59,4.48 -2.34,6.62l-8.15 27.66c-7.99,24.56 -16.63,49.08 -25,73.52 -4.63,13.43 -8.76,26.97 -13.36,40.37l-40.37 138.75c-4.6,13.45 -8.51,27.11 -13.13,40.61l-43.56 126.61c-4.82,18.48 -3.61,21.56 -3.61,41.16 42.73,-0.95 46.95,-11.07 65.76,-41.7 5.91,-9.62 10.09,-19.71 14.99,-29.8l480.41 -943.57c14.36,-29.44 37.59,-49.22 47.84,-77.55l4636.74 0 109.89 0c11.36,31.37 39.88,48.87 62.7,71.65 41.13,41.07 96.7,81.56 128.11,131.61l55.43 69.95c88.14,87.17 169.83,169.68 255.3,255.19l259.71 259.72c25.47,25.45 224.9,208.52 238.34,245.29 4.93,13.49 3.14,8.37 3.47,23.39l35.83 0 -24.14 -47.51c-3.56,-5.49 -7.91,-9.46 -15.71,-20.11l-45.01 -62.46c-385.69,-370.8 -1013.68,-1237.23 -1467.31,-1720.99 -10.66,-22.45 -25.72,-45.8 -47.88,-59.6 -6.9,-4.3 -16.98,-8.85 -23.7,-12.13l-119.49 -68.58c-240.93,-147.19 -481.61,-277.47 -734.47,-402.93 -81.38,-27.45 -168.17,-23.79 -262.8,-23.79l-13183.1 0 0 1020.98 1549.37 0c495.38,0 991.54,-8.03 1486.9,0.21 32.4,0.54 69.18,9.64 80.38,-18.12l35.83 0c8.45,20.93 26.61,21.3 51.97,16.14 23.81,-4.84 28,-23.16 37.59,1.77l11320.27 0c6.81,18.81 2.64,8.51 13.47,22.35 10.83,13.85 5.74,6.51 13.06,13.81l98.85 89.22c1.75,78.5 16.17,-6.86 17.92,71.65l-13514.48 0 -1740.23 0c-51.58,-1.17 -92.15,-2.6 -118.15,-4.36l0 -980.8 -102.96 0 -53.74 0 -22.05 0 0 387.98c-0.21,56.41 -0.19,116.31 0,176.6l0 420.58 -7.11 142.64 10740.44 0.65zm-1398.27 286.37l-154.64 0c-3.95,103.42 2.67,262.56 6.71,322.57l149.52 1.08 -1.59 -323.65zm-2898.44 0l-190.27 0 -0.8 163.44 188.65 0.97c0,-32 1.9,-98.12 2.42,-164.41zm-313.76 0l-164.7 0c-0.28,73.77 0.62,146.46 0.03,163.89l165.72 1.79 -1.05 -165.68zm-298.29 0l-170.39 0 -0.54 165.18 170.4 -1.59 0.53 -163.59zm-2255.54 0l-143.73 0 0 322.63c133.06,0 25.17,-0.91 145.25,2.53 0,-114.1 -0.94,-218.21 -1.52,-325.16zm-2758.68 680.87l2702.06 0 2.45 0 89.56 0 6018.37 0 0 -3.33c0.01,-5.83 0.03,-11.65 0,-17.42l0 -305.31 -8943.56 0 0 55.38c-4.4,0 -8.52,0.62 -12.35,2l12.35 23.48 0 245.2 5.56 0 125.56 0zm7469.05 1056.8c73.48,-26.6 7.64,-17.92 143.3,-17.92l0 17.92c22.69,9.16 26.65,29.92 34.81,73.99 2.7,14.58 1.5,25.06 -2.04,38.34 -0.63,2.38 -1.76,4.53 -2.5,6.84l-22.07 59.18c-22.86,38.08 -12.32,-1.51 -26.11,36.59l-71.65 0 -24.56 -47.09c-27.55,-57.68 2.05,-91.82 -16.82,-144.38l-12.36 -23.47zm286.59 89.56l0 -107.48 89.56 0c-11.29,31.19 3.41,3.14 -17.78,27l-32.75 38.9c-13.87,24.26 -9.54,30.9 -39.03,41.58zm-8346.9 -501.54l250.76 0 9493.27 0 0 250.77 -9448.49 0 -9.52 0 -137.99 0 -4.76 0.01c-19.71,0.07 -56.78,2.02 -76.69,-0.01l-66.58 0 0 -17.91 0 -232.86zm-913.51 0l465.71 0 0 161.21 -404.18 1.17c-27.45,-1.1 -35.18,0.68 -37.92,-1.17l-23.61 0 0 -161.21zm-6251.22 35.83l17.9 0c0.63,27.91 5.26,34.89 35.27,63.25 1.34,1.26 3.2,3.15 4.57,4.38l103.46 48.8c162.68,55.86 782.08,28.6 967.24,26.86 -1.4,62.76 -19.14,25.55 -35.83,71.65 -214.19,0 -790.91,26.32 -972.62,-21.48l-13.08 -4.83c-69.16,-23.52 -82.15,-24.78 -112.01,-122.15 -2.15,-6.42 -5.62,-14.67 -5.52,-21.56 0.23,-23.89 -1.43,5.47 3.72,-15.31 1.09,-4.38 6.28,-1.81 6.9,-29.61zm22568.89 71.65l-71.64 0c-6.18,-23.28 3.32,-10 -17.92,-17.92l17.92 -53.73c71.77,25.98 -16.32,0 107.47,0 -1.39,62.38 -18.56,25.38 -35.83,71.65zm-22533.07 -161.21l35.82 0c15.58,43.06 2.33,-7.23 17.92,35.82l-71.66 0c15.42,-42.57 2.14,6.48 17.92,-35.82zm6519.9 -161.21l0 -179.12 71.65 0 0.22 134.57c-5.53,27.22 5.34,17.17 -18.13,26.64 -5.73,14.18 7.77,17.91 -53.74,17.91zm-6179.58 -268.68l841.86 0 0 232.86 -823.94 0c0,-130.19 -6.29,-63.58 -16.14,-109.25 -5.24,-24.31 -1.78,-94.51 -1.78,-123.61zm22819.67 -125.38c88.2,0 175.17,-11.29 239.83,10.93 24.89,8.57 35.55,6.38 56.36,24.24 21.69,18.63 31.26,43.25 62.04,54.39l0 125.38 -358.23 0 0 -214.94zm-16496.8 -358.24l716.48 0 0 322.42 -671.92 0.22 -1.12 -0.22 -43.44 0 0 -42.72c-0.67,-8.61 -0.91,-20.56 -0.69,-37.19l0.69 -242.51zm14741.44 -232.85l53.74 0c0.88,39.72 9.83,12.8 16.97,63.63l27.84 151.28c17.73,51.36 5.28,45.72 8.67,89.85 1.43,18.66 -1.41,-0.55 2.04,15.86 9.03,42.89 17.98,-4.84 16.12,91.35 -0.18,9.26 -1.02,27.71 -0.32,36.15 4.46,53.7 10.22,13.81 17.29,63.31l19.33 106.06c1.09,35.07 -4.85,43.21 5.75,74.85 29.76,88.77 -6.39,47.82 23.36,137.85 11.14,33.73 2.38,39.98 6.84,73.76 8.46,64.02 11.81,-11.75 17.56,63.04 3.47,45.11 -8.34,41.5 8.7,89.81 0.73,2.07 2.02,4.14 2.72,6.24l6.24 47.49c-60.38,0 -48.15,-4.08 -53.73,-17.9 -34.34,-13.87 -9.1,-33.55 -19.8,-87.69l-12.27 -32.5c-7.72,-27.49 -1.38,-49.38 -3.51,-77.1 -5.73,-74.62 -8.87,0.79 -17.7,-62.9 -7.81,-56.44 12.76,-27.04 -12.06,-104.36 -13.66,-42.55 2.47,-31.33 -15.3,-83.22 -20.38,-59.51 0.55,-53.53 -15.16,-101.27 -8.19,-24.88 -10.17,-10.03 -11.81,-50.88 -3.92,-97.8 -2.95,-42.98 -11.54,-69.06 -11.11,-33.75 -2.39,-39.96 -6.84,-73.76 -8.26,-62.74 -9.3,10.5 -16.98,-63.63 -1.39,-13.44 0.47,-18.86 -2.43,-33.39l-11.88 -32.9c-7.77,-29.44 -0.58,-40.28 -10.24,-70.36 -19.46,-60.57 -11.6,-65.06 -11.6,-149.61zm-22002.93 -112.31c0,136.39 -42.45,461.55 -65.09,586.32 -0.82,19.03 0.65,43.54 0.65,63.34 -19.57,-331.08 35.82,-507.95 35.82,-788.11l17.92 0c72.48,-14.93 528.28,-26.8 699.8,-6.25 32.34,3.87 52.73,20.03 59.49,35.08 18.68,41.6 10.91,58.92 10.91,114.46 -245.07,0 -547.88,-22.5 -759.5,-4.84zm24761.35 22.75c0,-26.48 -2.09,-25.51 5.48,-48.25 1.37,-4.15 3.64,-8.47 5.46,-12.46 17.73,-39.18 51.12,-63.66 96.53,-64.67l0 71.65c-27.44,9.93 -30.02,23.65 -44.09,36.51 -22.43,20.49 -31.76,17.22 -63.38,17.22zm-22837.58 -17.91l-967.23 0 0 -125.38c339.28,0 741,15.45 1074.7,-17.91 -10.79,29.82 -27.57,26.46 -50.68,65.74 -2.19,3.72 -3.92,8.08 -6.1,11.81 -22.29,37.88 -38.85,33.03 -50.69,65.74zm22568.9 -268.68c27.5,0.62 19.36,4.5 42.3,11.44l52.5 10.19c28.28,7.5 66.14,31.14 77.86,56.49 0.9,1.96 1.59,4.49 2.4,6.54 18.63,47.07 -11.77,27.11 21.97,40.73l0 35.82c-60.38,0 -48.15,4.08 -53.74,17.91l-35.82 0c-9.18,-22.74 7.8,-5.92 -33.37,-20.36l-56.22 -24.39c-8.28,-4.21 5.27,-0.61 -17.88,-8.98l0 -125.39zm-17732.7 107.48l386.27 -1.17c51.71,2.07 33.45,-6.08 43.61,19.08 23.36,9.43 12.77,-0.6 18.13,26.64l0.78 99.74c-5.69,54.42 8.07,23.93 -18.91,34.82 -7.68,19.04 1.26,19.67 -71.23,18.33l-287.01 -18.33c-33.05,-13.34 -6.16,10.43 -24.8,-46.84 -8.96,-26.83 -18.3,-53.71 -26.82,-80.66l-20.02 -51.61zm-4782.46 949.32c0,-53.73 0.17,-107.49 -0.02,-161.22 -0.39,-114.36 12.47,-90.09 17.93,-152.24 3.44,-39.31 21.77,-73.5 31.73,-111.56l15.2 -65.4c1.68,-4.89 3.83,-11.17 6.77,-20.1l146.66 -336.96c0.94,-1.82 1.97,-4.23 2.88,-6.07 11.64,-24.13 23.55,-47.95 35.59,-71.88 22.86,-35.32 36.71,-36.15 53.99,-71.4l11.68 -24.14 609.01 0 -185.35 47.5c-2.21,0.68 -4.33,1.75 -6.62,2.34 -22.3,5.73 -27.87,1.84 -48.9,4.83 -63.29,9.01 3.8,4.6 -47.83,14.87 -53.6,10.65 -48.97,2.76 -99.14,26.24 -16.88,7.89 1.1,0.88 -19.25,7.62 -49.33,16.33 -90.76,38.06 -115.56,81.47l-6.53 11.39c-11.62,16.72 -17.21,15.6 -30.47,32.22l-162.81 302.89 -79.69 180.04c-3.42,9.91 -3.02,11.41 -6,20.86l-37.81 132.36 -46.13 115.07c-10.31,20.88 -15.85,32.77 -39.33,41.27zm3492.81 -1594.15c115.59,0 324.37,42.73 511.42,120.95 383.89,227.84 651.68,573.09 706.15,945.23 12.12,82.84 42.61,241.38 -71.22,241.38 123.2,-454.41 -427.57,-1204.64 -1038.89,-1253.82 0,90.58 -17.9,154.75 -17.9,232.85l-89.56 -286.59zm-1056.8 -143.3c180.82,-3.3 342.82,7.26 483.62,17.92l0 71.64c-165.31,-5.76 -281.32,-16.76 -483.62,-17.91l0 -71.65zm2400.18 -71.64l394.06 0c0,70.67 -4.46,62.62 17.91,71.64l0 35.83c-23.27,6.17 -9.99,-3.32 -17.91,17.91l-376.15 0c-1.19,-53.85 -17.91,8.05 -17.91,-125.38zm-1235.92 125.38l-125.38 0c0,-78.42 -5.92,-60.47 21.06,-113.27l29.06 -78.42c7.87,-31.03 0.51,-51.76 3.57,-68.08 5.14,-27.38 -5.49,-17.35 17.96,-26.82 5.72,-14.18 -7.78,-17.91 53.73,-17.91 0,141.37 18.53,47.75 18.44,151.74 -0.07,70.08 -17.21,108.44 -18.44,152.76zm-232.85 -161.2c-537.9,0 -2172.62,-51.36 -2668.86,591.08l-214.94 0c9.11,-25.17 34.24,-43.31 53.73,-62.69 347.5,-307.58 593.4,-454.53 907.22,-566.17 272.38,-96.89 630.51,-126.21 919.42,-138.29 363.94,-15.22 678.64,-16.01 1039.26,-3.05 0,90.82 -34.59,123.4 -35.83,179.12zm1361.3 -447.8l35.82 0 6.23 47.51c10.6,32.66 -5.14,-20.34 5.38,12.54 14.72,46.05 -4.05,19.84 17.92,89.54 11.21,35.57 3.22,37.48 8.4,63.25 12.85,63.85 15.81,-14.51 15.81,145.4 -7.21,0 -40.63,1.1 -45,0.21 -27.23,-5.55 -17.17,5.36 -26.65,-18.13 -19.04,-7.68 -19.66,1.27 -18.32,-71.23l0.41 -269.09zm-1880.74 -197.03l422.09 -1.17c51.72,2.07 33.46,-6.08 43.62,19.08 23.9,9.65 18.11,-28.27 18.11,89.56 0,117.83 5.79,79.91 -18.11,89.56 -9.4,23.28 29.44,18.95 -98.47,17.95l-305.72 1.13c-51.71,-2.07 -33.45,6.08 -43.61,-19.08 -22.3,-9.01 -19.44,27.47 -18.01,-89.46 0.43,-35.79 0.1,-71.76 0.1,-107.57zm-4621.25 -322.41l71.64 0 -17.9 1110.53c0,-20.73 2.01,-52.72 0.33,-71.99 -5.64,-64.52 -17.02,12.63 -17.67,-125.62 -0.25,-53.03 -9.58,-51.42 -12.27,-59.38 -27.13,-80.57 5.31,-303.49 -9.98,-357.22 -28.15,-98.95 -14.15,-57.12 -14.15,-200.78l0 -295.54zm22721.15 339.89c58.13,10.52 189.55,174.03 63.99,333.04 -94.44,119.6 -271.24,165.36 -357.6,122.2 -123.23,-61.58 -194.73,-128.93 -227.57,-273.99 -30.91,-136.54 113.1,-273.78 244.13,-194.08 -13.87,98.37 -145.95,69.59 -122.47,197.46 29.52,160.83 307.76,200.31 392.97,51.08 65.01,-113.87 -65.08,-159.55 6.55,-235.71zm-15968.4 -53.31c1.88,-84.3 18.09,39.38 17.92,-161.2l0.53 -1412.5c-13.77,122.68 410.28,1123.98 444.07,1388.82 2.19,4.44 8.95,16.61 9.35,17.51 31.19,69.41 -9.54,44.08 29.67,59.9l0 53.74c-58,0 -42.19,6.72 -66.96,13.64l-123.52 28.74c-85.94,27.45 -199.74,11.35 -311.06,11.35zm11257.59 -494.57c31.28,6.62 323.9,198.59 353.48,257.11l-595.29 4.73c116.02,-145.71 187.85,-201.75 241.81,-261.84zm241.81 -347.28c2.7,-6.71 134.09,-153.7 143.29,-179.12 129.57,0 895.99,427.96 1068.74,516.46 37.72,18.89 48.38,37.76 95.53,38.81 0,96.06 -35.83,161.88 -35.83,232.85l-967.23 -17.91c-84.24,-108.33 -392.3,-294.56 -456.68,-395.84l35.75 -50.13c27.76,7.3 216.83,150.96 259.75,186.43 268.09,174.64 135.32,91.26 304.47,196.7 20.55,-1.72 100.7,-25.31 98.56,-40.58 -60.25,-93.38 -513.86,-344.82 -580.44,-444.58l34.09 -43.09zm1786.64 76.46c-66.22,-38.35 -128.47,-50.66 -64.11,-135.9 51.14,2.88 123.46,54.09 172.91,80.49l975.63 546.66c525.67,348.8 -529.75,-188.32 -574.9,-213.04l-509.53 -278.21zm2762.96 -237.67l0 -17.91c42.03,-0.94 19.21,0.35 65.76,-23.8 15.75,-8.18 31.77,-16.07 47.69,-23.96l256.73 -146.29c35.95,-17.93 72.31,-35.66 107.81,-54.42l119.57 9.14c12.42,3.82 2.98,5.89 29.35,6.48l0 17.91c-46.35,1.03 -22.86,2.12 -42.63,11.11l-70.46 45.95c-1.83,0.94 -4.23,1.97 -6.08,2.89l-30.12 14.65c-68.47,33.37 -41.66,26.68 -77.42,47.96 -53.82,26.76 -107.6,53.55 -161.36,80.45 -108.09,54.91 -29.71,12.37 -148.85,38.37 -9.91,2.17 1.24,3.36 -13.89,1.38 -1.19,-0.16 -3.61,-1.1 -4.88,-1.38l-71.22 -8.53zm-3122.41 313.03c-28.17,-4.66 -273.3,-136.74 -316.93,-160.64l-609.34 -322.1c-179.64,-100.78 -218.73,-74 -184.52,-139.45 51.05,-97.66 121.51,-134.22 223.36,-69.06l734.85 428.93c112.81,65.78 225.05,92.06 152.58,262.32zm-1.43 -328.8c-98.15,-11.43 -427.49,-225.53 -555.38,-290.05 -30.86,-15.56 -49.9,-19.86 -62.84,-51.5 61.58,1.11 127.47,47.8 169.19,70.22l319.06 164.3c76.49,36.99 116.86,47.74 129.97,107.03zm4077.64 -536.42c209.78,-52.01 268.12,222.18 84.25,246.54 -212,28.09 -271.92,-200.01 -84.25,-246.54zm-470.18 -182.19c78.5,1.75 -6.86,16.16 71.65,17.91l0 35.82 -30.01 -5.81c-22.92,-10.33 -33.65,-33.15 -35.5,-36.15 -1.2,-1.96 -4.32,-9.41 -6.14,-11.77zm-345.81 236.31c-43.97,4.44 -331.03,-142.02 -389.83,-172.47l-282.67 -147.2c-35.86,-16.69 -65.28,-23.32 -86.33,-60.36l16.02 -31.4c56.9,-9.52 336.42,154.23 398.68,184.32 117.46,56.78 176.36,79.45 292.45,146.25 32.94,18.95 61.71,28.88 51.68,80.86zm-16133.07 -612.46l35.82 0c0,53.84 0.21,107.7 -0.32,161.53 -0.09,8.92 -0.69,27.9 -0.03,35.85 1.5,17.99 -1.21,-0.21 2.04,15.87 216.95,535.17 461.07,1106.15 656.31,1645.37 0.91,2.76 3.06,11.16 4.12,13.78 13.08,32.2 -16.58,12.08 18.54,26.25l0 71.65c-8.8,0 -26.59,-1.12 -34.29,1.54 -24.55,8.49 -9.52,-8.24 -19.45,16.37l-35.82 0c-0.68,-30.16 -11.64,-38.91 -24.15,-65.41 -3.02,-6.4 -5.26,-12.5 -7.75,-19.12 -5.52,-16.22 -4.14,-18.69 -10.17,-34.61 -211.74,-535.56 -391.98,-1063.38 -578.61,-1606.63 -0.89,-1.85 -2.16,-4.07 -3.09,-5.87 -11.1,-21.73 -36.94,-101.2 -19.28,-183.14 0.53,-2.46 1.31,-4.66 1.97,-6.99 1.24,-4.33 3.74,-8.59 5.2,-12.71l8.96 -53.73zm12036.75 125.38c66.58,0 241.54,61.54 275.66,49.7 181.72,-13.35 437.98,-160.26 475.1,-355.74 2.32,-12.2 1.54,-21.93 1.54,-34.28 8.06,4.32 15.54,8.49 24.14,11.67 403.46,173.01 830.17,328.03 1241.35,478.19 4.34,1.64 8.31,3.47 12.49,5.42 541.25,221.68 1107.94,437.13 1643.18,667.45 12.2,2.31 21.94,1.54 34.29,1.54 1.14,51.65 4.61,27.36 21.2,59.39 0.93,1.79 2.31,3.94 3.19,5.78l7.67 19.19c6.41,23.53 1.77,29.12 9.56,53.13 0.7,2.15 1.7,4.41 2.5,6.46l12.08 23.74c15.73,26.64 44.06,49.32 74.98,59.35 32.33,10.5 59.07,10.36 89.89,26.54l94.76 39.58c37.98,12.81 76.16,25.15 114.05,38.2l237.92 84.5c2.14,0.75 4.53,1.53 6.62,2.34l256.99 92.28c143.4,50.62 286.78,101.27 430.14,152 9.99,4.95 19.94,9.91 29.98,14.8 30.81,15.66 55.95,40.67 77.51,65.78l77.95 110.12c26.96,60.28 20.33,96.15 35.56,143.57l12.25 50.44c0.81,18.9 -0.57,43.66 -0.64,63.32l0.02 618.02c0.22,35.57 2.44,66.44 -8.99,98.47l-5.2 12.71c-13.43,47.23 -3.76,409.38 -3.76,488.82 -49.21,0 -71.59,-8.64 -113.45,-29.83 -559.87,-550.15 -352.23,-1783.67 -560.97,-1164.03 -23.16,68.75 8.59,177.89 -15.18,244.53 -2.92,8.18 -1.3,-7.55 -7.18,19.7 -9.63,44.65 -1.78,96.24 -1.78,141.51l-83.66 -41.72c-233.41,-113.46 -560.92,-480.52 -802.79,-477.9 -324.73,3.52 -2563.49,-1220.24 -3060.37,-1498.19 -9.97,-6.49 -5.17,-3.29 -17.32,-9.55l-587.02 -308.57c-16.55,-12.03 -26.74,-9.79 -34.26,-28.43zm4191.36 -125.38c31.21,0 47.81,-5 66.19,23.37 1.08,1.66 2,4.22 3,5.95 2.81,5.76 5.69,12.38 9.12,17.76l19.96 24.81c5.7,9.49 4.04,0.7 8.02,18.85 2.17,9.9 1.19,24.21 1.19,34.64 -41.97,-0.93 -70.72,-29.71 -71.65,-71.64l-35.83 0 0 -53.74zm-429.88 698.76l-35.82 17.71c-12.62,-31.27 14.47,-5.81 -53.08,-27.52 -2.17,-0.7 -4.33,-1.76 -6.56,-2.4 -153.02,-40.96 -1718.43,-554.05 -1337.49,-837.49 71.03,27.96 695.18,401.05 807.9,471.26l761.35 367.57c39.33,18.34 80.5,24.39 97.36,55.45 -13.65,8.87 12.17,0.63 -20.52,8.5l-213.14 -53.08zm-907.61 -731.33c138.34,67.1 228.98,77.9 226.42,150.84 -26.81,-5.5 -47.74,-17.4 -71.49,-28.09 -91.28,-41.05 -410.59,-125.97 -416.44,-229.23 37.71,-5.98 217.63,85.19 261.51,106.48zm-2853.87 141.08l0 16.87 -17.92 0 7.62 -17.91c-25.45,-12.7 -54.58,-14.87 -83.67,-31.4 -59.71,-33.94 -135.13,-96.19 -167.13,-155.35 -69.03,-127.63 -51.68,-212.21 -1.86,-344.92 95.76,-255.11 366.66,-281.24 592.23,-209.52 239.38,76.11 372.4,330.92 302.28,530.68 -17.07,48.64 -64.02,87.06 -99.28,115.62 -150.82,122.17 -349.15,119.57 -532.27,95.93zm2131.5 -341.37c23.28,-6.17 9.99,3.33 17.91,-17.9l17.92 0c10.54,29.13 17.12,18.14 17.91,53.73 -20.48,-3.25 -48.57,-11.79 -53.74,-35.83zm232.86 36.45c-0.04,0 -62.61,-28.72 -58.47,-63.31 16.82,-11.47 -24.67,-25.16 35.3,-6.09 23.09,7.33 47.63,26.69 56.05,48.86 -14.01,13.15 -10.4,12.31 -32.88,20.54zm1594.15 -161.83c54.24,-1.2 26.25,5.8 35.82,-17.91l57.44 32.12c3.78,3.78 13.52,11.24 14.77,12.1 8,5.48 2.15,4.01 17.35,9.51l0 89.56c23.28,6.18 9.99,-3.32 17.92,17.92l-71.65 0 -20.73 -41.97c-7.33,-12.42 -2.03,-3.71 -10.91,-15.95 -44.57,-61.41 -4.53,-35.23 -40.01,-49.56l0 -35.82zm-143.29 -411.97l17.91 0c0.94,42.4 1.63,21.42 26.68,71.83 4.95,9.97 9.96,19.83 15.04,29.74 11.69,18.76 25.03,33.47 47.84,41.72l0 17.92c-27.57,9.97 -21.2,20.69 -51.55,16.57 -52.83,-7.17 19.04,-14.9 -55.92,-16.57 -1.59,-70.98 -31.79,-6.86 -14.81,-76.2 6.82,-27.85 14.81,2.04 14.81,-85.01zm-2167.34 89.56c12.56,34.68 -0.51,-0.76 11.69,24.14 28.99,38.12 337.71,270.67 364.46,280.36l17.92 232.85 35.82 0c0,44.57 4.99,71.92 53.73,89.56 0,133.15 -92.07,103.81 -195.24,69.86 -1093.63,-435.68 -956.45,-236.37 -825.73,-1055.01 40.64,0.91 48.73,23.6 101.81,50.45l131.04 92.85c-23.74,9.58 -9.37,-5.48 -17.13,20.02 -17.27,214.95 275.24,213.94 321.63,194.92zm-14884.72 -322.41c87.12,240.68 197.03,1817.07 197.03,2113.59l-259.95 -0.22c-27.22,5.54 -17.17,-5.34 -26.64,18.13 -24.09,9.73 -8.63,-5.33 -16.47,19.36 -28.72,90.4 16.47,386.66 16.47,535.91 78.09,0 250.93,28.61 304.83,0.33 11.8,-6.19 23.63,-12.2 35.49,-18.24 0,-445.97 35.83,14.33 35.83,179.11l-394.06 0c-74.41,143.39 -35.83,457.52 -35.83,626.92 -48.15,-17.43 -70.1,-46.32 -72.29,-97.86l18.13 -305.58c10.43,-71.26 -5.06,-2435.39 0.53,-2892.43 2.1,-171.82 -83.02,-179.02 196.93,-179.02zm2991.27 -17.92c2317.38,-46.77 4633,16.07 6950.05,17.73 339.84,0.24 2752.78,-27.61 2728.9,24.66l-27.29 53.31c-7.54,12.66 -1.7,3.49 -10.99,15.87l-61.94 99.28c-9.31,12.41 -3.44,3.18 -10.99,15.87 -0.59,0.98 -8.76,17.29 -9.03,17.84 -38.18,78.74 -88.33,140.62 -125.39,214.94 -119.11,240.72 -346.84,718.65 59.95,865.98l0 17.91c-83.97,33.9 -1130.93,1469.18 -1200.09,1612.06l-7128.91 0c0,-136.22 819.4,-89.56 877.68,-89.56 -2.38,-107.07 -1890.52,-2676.71 -2024.31,-2838.74 -1.71,-1.98 -6.53,-7.89 -7.98,-9.94 -1.05,-1.49 -2.53,-4.13 -3.43,-5.52 -1.24,-1.92 -4.41,-9.32 -6.23,-11.69zm13845.84 -179.11l35.83 0c13.82,38.18 2.64,-2.73 33.14,47.45l38.51 113.75c-25.6,-0.57 -33.34,-5.79 -49.7,-21.95l-57.63 -40.89c-5.42,-2.62 1.35,-1.78 -18.06,-8.8 0.74,-2.05 2.88,-6.91 3.33,-5.63l14.58 -83.93zm-3367.42 197.03l0 -35.83 35.77 -9.01c28.24,-16.75 33.93,-54.61 95.42,-74.74 17.82,-5.84 4.24,-5.23 30.02,-5.81 -27.45,75.82 -86.64,98.4 -161.21,125.39zm-14562.31 -107.47l-35.82 0 17.9 3492.8c-244,0 -562.51,36.54 -812.09,54.04 -926.04,65.27 -1702.48,957.46 -1775.05,949.28 -359.23,9 -659.38,3.31 -994.89,0.07 -141.9,-1.37 -353.71,14.29 -484.95,0.67 -54.41,-5.63 -23.95,8.01 -34.82,-18.91 -23.75,-9.58 -9.37,5.48 -17.13,-20.02 -1.41,-4.6 -1.07,-25.84 -0.01,-30.96 11.04,-53.4 15.53,15.86 17.14,-56.49 29.54,-0.66 21.89,-5.43 42.38,-11.36l45.07 -8.65c24.94,-9.09 9.62,9.95 20.02,-15.81 24.09,-9.73 8.63,5.33 16.47,-19.35 1.79,-5.66 2.23,-35.17 2.17,-42.69 -50.13,-492.75 -34.63,-1106.45 35.52,-1594.37 77.83,-540.42 280.04,-1026.71 435.68,-1543.59 88.85,-242.84 175.71,-485.36 266.35,-727.75 0.74,-2.15 1.53,-4.54 2.33,-6.63l154.98 -364.46c9.85,0 27.27,-1.1 36.16,-0.34l143.48 62.51 35.3 45.3 107.48 0c0,-92.97 8.04,-92.83 17.9,-197.03 -86.91,-191.89 791.4,-274.87 949.34,-214.94l1952.38 0 0 125.38 -143.29 0 0 143.3zm15457.9 -197.03c27.13,-9.82 8.28,-0.77 31.8,-21.94 3.08,-2.77 6.15,-5.88 9.13,-8.79l24.49 -29.24c0.93,-1.89 1.82,-4.32 2.62,-6.34l61.27 -153.66c6.71,-19.7 -0.05,-2.6 7.75,-19.12 12.57,-26.62 23.41,-32.37 24.15,-65.42l17.91 0c0,51.93 36.52,135.33 55.52,195.25 2.18,6.75 4.17,13.44 6.86,20.01l8.67 18.19c10.37,18.75 4.23,7.78 10.46,16.42l110.75 148.97c40.53,41.25 33.67,24.97 76.74,48.64 19.41,10.67 7.36,3.68 16.48,10.38 41.06,30.19 -0.42,24.53 54.84,25.76 1.75,78.51 16.17,-6.85 17.92,71.65 -54.24,0 -45.36,4.48 -78.3,-11.26l-357.73 -152.76c-96.56,-48.43 -56.99,-52.78 -101.33,-68.83l0 -17.91zm-107.47 0l-465.71 0c14.18,-39.18 34.38,-30.93 77.78,-56.56 25.28,-14.93 18.71,-19.56 52.89,-36.67l101.92 -32.59 155.67 24.15 65 42.48c15.23,20.38 12.45,27.32 12.45,59.19zm-18305.88 -35.83c-5.81,21.89 3.97,12.11 -17.92,17.91 6.18,-23.27 -3.32,-9.99 17.92,-17.91zm19344.77 -143.29c26.13,-10.55 34.93,-31.78 35.82,-71.65l53.73 0c1.6,71.71 26.17,2.57 18.14,79.53 -5.72,54.83 -18.14,-1.71 -18.14,81.68l-89.55 -53.74 0 -35.82zm1325.47 -53.74c14.18,-5.72 17.92,7.78 17.92,-53.73l18.09 8.77c44.73,20.93 17.29,-3.7 40.42,22.26 27.98,31.4 -1.01,-5.06 13.18,31.62 12.23,31.63 -16.77,12.93 17.87,26.91l0 35.82c-23.28,6.17 -10,-3.32 -17.92,17.91 -28.51,-10.32 -8.9,-17.91 -71.64,-17.91 -1.21,-54.25 5.79,-26.25 -17.92,-35.82l0 -35.83zm-20670.24 197.03l134.19 -161.35c38.78,-39.77 30.29,-22.96 76.62,-57.72 12.01,-9 3.73,-3.79 15.76,-11.11 18.84,-11.98 49.62,-20.16 71.04,-27.47 2.1,-0.74 4.28,-1.84 6.4,-2.55 281.7,-95.03 4193.1,63.17 2812.64,63.17 -514.98,0.35 -2322.05,-70.55 -2691.97,21.67 -126.53,42.94 -250.29,127.03 -350.59,159.9 -34.79,11.39 -23.86,15.46 -74.09,15.46zm16890.85 107.47c-2430.83,0 -4892.36,0.24 -7334.9,0 -141.51,0.01 -58.97,3.36 -156.71,-9.92 -1.07,-0.14 -3.47,-0.5 -4.53,-0.51 -26.33,-0.27 -4.57,9.54 -44.74,10.43l0 -394.06c748.66,0 7767.28,-20.93 7750.01,30.02 -41.19,121.5 -174.6,268.63 -209.13,364.04zm-8973.83 -877.67l8946.96 0c47.76,0 95.58,0.24 143.33,-0.05 172.68,-1.03 46.26,15.99 134.3,17.95 1.53,68.46 125.38,105.96 125.38,286.6l-8060.32 0 0 555.26 -286.58 0c0.09,-48.17 4.7,-569.85 -7.03,-569.76 -309.93,2.49 -668.03,3.47 -996.04,14.5l0 -304.5zm-465.71 0l322.42 0c30.55,-2.59 23.16,0.78 18.24,142.96 -0.53,53.84 -0.33,107.69 -0.33,161.54l-340.33 0 0 -304.5zm-1352.89 680.09c75.93,-151.95 651.78,-1040.76 690.16,-1056.25l0 859.77 2006.12 0 0 376.15c-693.06,0 -1393.28,17.91 -2077.77,17.91 -1.1,49.11 -352.04,482 -434.58,586.39 -28.59,27.48 -15.69,17.71 -37.35,52.21 -1.03,1.65 -2.34,3.95 -3.44,5.52l-68.14 84.12c-11.68,19.09 -26.3,34.27 -47.58,41.97 0,-31.22 4.63,-65.71 -3.79,-94.8l-10.85 -25.93c-7.88,-28.43 -2.71,-31.09 2.63,-52.5l4.04 -41.66c0.34,-1.52 1.4,-4.01 1.82,-5.7 22.73,-91.37 -41.14,-88.35 12.28,-167.32 168.72,-249.51 344.11,-498.44 516.54,-746.26 1.02,-1.67 2.27,-4.01 3.33,-5.63l31.71 -57.84c2.23,-6.8 4.52,-13.11 7.07,-19.81 21.93,-64.37 8.4,-200.79 8.4,-269.23 -23.85,8.63 -13.39,-0.8 -30.01,23.73 -184.37,259.26 -373.46,492.14 -542.51,765.06 -0.93,1.8 -38.19,3.54 -39.21,5.27 2.13,-237.38 3.21,-251.94 11.13,-275.17zm13264.26 -572.63c23.71,-9.57 16.7,18.42 17.91,-35.82l35.82 0c22.47,62.08 17.91,-3.79 17.91,125.38l-53.73 0c0,-60.38 -4.08,-48.15 -17.91,-53.73l0 -35.83zm1092.62 -71.64l51.23 29.36c38.77,68.43 16.02,20.04 46.21,61.27l10.36 16.51c13.7,18.28 -7.3,8.2 17.58,18.24l0 35.82c-23.27,6.18 -9.99,-3.32 -17.91,17.92l-35.82 0c-11.84,-32.71 -2.92,-4.05 -25.94,-36.76 -3.99,-5.68 -6.9,-10.58 -10.24,-16.63l-24.21 -47.44c-0.88,-1.85 -2.17,-4.03 -2.99,-5.96 -11.75,-27.69 -8.27,-41.06 -8.27,-72.33zm-3045.01 17.91l-35.82 0 -9.05 -35.74c-10.81,-17.9 -19.18,-9.12 -44.69,-53.82l-31.05 -40.6c-7.53,-7.39 -9.22,-8.79 -13.73,-13.13 -31.34,-30.22 -30.31,-24.01 -48.14,-59.33l-5.74 -12.18c-2.62,-5.41 -1.79,1.34 -8.81,-18.05 -3295.85,0 -6607.4,32.8 -9901.18,1.62 -16.63,-0.16 -4.06,434.34 -4.06,482l-340.32 0 0 -788.12 10147.04 0c51.96,0 110.92,-2.75 161.87,-0.66l64.15 16.45c5.99,2.07 7.68,2.16 13.69,4.22 4.46,1.51 8.8,3.17 13.21,4.7l42.63 11.11 0 35.82c36.81,0.82 43.2,15.74 76.18,49.2l75.03 77.23c31.84,44.29 -12.94,18.29 27.91,34.78l0 35.82c-29.35,10.63 -24.96,17.1 -39.16,41.44l-94.11 138.75c-9.72,14.09 -19.02,28.87 -28.45,43.19 -16.47,22.01 -16.45,2.81 -17.4,45.3zm1952.39 -501.53c23.71,-9.57 16.7,18.42 17.91,-35.82l17.91 0c0.62,27.54 4.92,20.1 11.36,42.37l3.8 14.12c12.87,59.6 -2.54,41.61 20.66,50.97l0 35.83c-23.71,9.57 -16.7,-18.42 -17.91,35.82l-17.91 0c-7.65,-21.14 -13.76,-27.83 -35.82,-35.82l0 -107.47zm913.5 53.74l35.82 0c1.02,45.76 7.98,52.71 53.74,53.73 0,84.43 16.41,22.19 17.91,89.56 -5.52,0 -22.42,0.71 -26.95,0.09 -28.52,-3.92 -8.96,4.14 -27.22,-8.61 -18.59,-12.98 -52.6,-109.63 -53.3,-134.77zm-161.2 -483.62l17.91 0c10.43,28.82 25.02,29.29 43.7,54.81l6.84 11.07c19.02,26.92 -16.84,8.36 21.11,23.67l0 53.74 -35.83 0 0 35.82 -35.82 0 -36.23 -81.5c-4.65,-52.2 18.32,-23.3 18.32,-97.61zm-752.3 71.64c0,-26.16 -2.45,-65.43 -0.34,-89.9 6.54,-75.83 16.57,4.06 18.25,-71.3l35.82 0c0,17.17 1.69,35.22 -1.69,52.03l-27.21 80.26c-17.41,34.96 6.16,16.4 -24.83,28.91zm125.38 -197.03c28.41,-10.28 28.36,-24.64 42.38,-47.18 18.86,-30.23 37.88,-46.52 44.75,-80.63 2.39,-11.84 1.26,-22.08 4.55,-31.28 8.95,-25.01 -9.92,-9.65 15.79,-20.03l0 -197.03c43.06,-15.58 -7.23,-2.33 35.83,-17.91l0 -161.21c40.57,-16.37 4.72,-41.65 26.69,-107.64l13.36 -58.28c6.16,-22.77 13.01,-18.77 13.68,-49.02l59.89 155.05c2.77,4.15 9.37,11.44 15.87,19.96l20.69 33.04c19.57,41.31 5.33,76.43 24.66,145.51 4.16,14.76 4.48,30.32 8.51,45.23l22.63 84.83c0.69,2.17 1.82,4.28 2.49,6.47l12.94 58.71c0.66,2.19 1.8,4.31 2.48,6.47 10.01,31.56 9.94,60.61 25.81,90.62l19.23 25.56c34.03,22.6 38.12,-10.94 53.48,27.11 35.36,14.28 7.46,-0.32 24.14,47.51 6.78,19.47 11.56,34.78 29.59,42.05l0 35.82c-24.26,9.8 -11.78,16.7 -8.99,39.28 4.87,39.51 -24.22,72.28 -0.49,140.37 0.74,2.09 1.84,4.29 2.58,6.38l13.04 40.69c18.62,50.47 61.55,79.5 97.22,117.72l47.48 68.95c1.1,1.56 2.45,3.85 3.55,5.41 18.95,26.95 -9.47,15.2 24.73,29l0 35.82c-27.34,11.04 -12.87,-19.57 -19,34.92 -0.25,2.28 0.88,60.29 1.3,63.32l24.27 57.08c7.46,18.49 3.7,1.66 3.24,19.45l10.4 45.81c18.24,36.16 50.56,62.14 51.44,101.84 15.76,0 27.07,-1.79 41.85,2.93l60.14 74.19c18.01,52.42 -5.78,123.37 9.06,179.03 0.61,2.27 1.62,4.44 2.32,6.63l9.88 25.94c6.1,17.89 -1.81,-4.3 4.16,13.75l19.74 60.87c2.24,6.68 4.82,12.87 7.48,19.38 19.41,43.46 61.03,80.6 102.08,103.91l11.45 6.47c33.8,22.3 47.39,77.8 46.61,107.09 -0.7,26.12 -11.11,16.42 -2.39,61.74l-1.68 24.94c-6.58,42.69 2.32,32.92 15.56,70.46l19.89 42.88c23.48,47.11 46.23,66.84 83.18,104.88 19.78,20.37 8.28,25.3 54.29,26.32 1.12,50.05 18.76,22.51 17.91,143.3 -0.57,81.18 -12.46,83.03 24.05,137.15 4.5,6.67 7.11,8.19 15.8,20.03 1.11,1.52 2.78,3.55 3.85,5.11l153.33 124.3c0,65.83 -10.71,143.12 17.83,197.11 3.17,6.01 6.47,11.36 9.17,17.7l29.27 78.2c21.16,35.79 63.63,59.64 83.83,95.29 11.89,20.98 16.36,31.3 44.47,45.09l20.77 31.66c-15.56,37.55 -25.07,134.08 31.86,193.33 10.53,10.95 1.61,-0.51 13.7,13.18l75.3 94.86c18.31,17.73 25.19,21.15 49.95,21.7 1.37,61.71 25.78,35.19 11.79,83.43 -7.63,26.28 -9.52,-4.23 -4.97,36.46 2.68,23.95 9.92,-17.16 2.13,14.03 -5.18,20.71 17.38,-0.76 -8.95,9.37l0 53.74c21.32,0.47 13.61,-2.95 30.34,5.48 27.64,13.94 28.78,50.8 54.44,70.94 12.17,9.55 7.56,5.8 22.25,13.57l60.05 29.51c2.18,0.74 4.65,1.52 6.84,2.13 12.45,3.46 7.28,3.4 23.11,3.75l0 35.82c-23.86,-8.86 -48.22,-17.23 -71.82,-26.7 -521.48,-261.25 -1114.02,-549.6 -1630.21,-850.56 -34.01,-17.94 -55.96,-60.05 -89.16,-72.06l-17.9 -125.38c25.36,-10.24 19.55,-26.03 13,-46.85l-40.44 -95.88c-37.1,-49.81 -47.89,-45.92 -60.42,-109.75l-16.28 -118.04c-3.05,-5.64 -7.06,-11.25 -9.9,-16.98l-11.35 -60.3c-62.89,-1.4 -30.04,-20.76 -71.65,-35.82l0 -53.74c27.77,-11.21 18.67,-47.99 18.13,-80.39 -0.9,-54.32 11.87,-148.18 -11.89,-195.18 -0.5,-0.99 -7.63,-12.19 -10.25,-17.33 -2.29,-4.5 -6.07,-10.89 -6.87,-15.73 -2.76,-16.66 -2.21,-2.67 1.7,-14.86l5.69 -11.04c0.58,-1.19 2.73,-3.67 3.49,-5.79l-35.82 0 0 -89.56c16.82,-6.79 39.1,-51.49 48.19,-77.2 14.78,-41.78 9.76,-135.11 -3.23,-173.75l-20.15 -78.36c-0.84,-1.92 -2,-4.2 -2.91,-6.05l-17.45 -27.33c-13.55,-13 -3.21,-6.53 -22.36,-13.46l0 -179.12 44.87 -35.73 11.39 -51.3c10.6,-47.93 16.17,-41.12 15.94,-119.43l-16.26 -82.33c-11.25,-34.13 -22.1,-69.78 -51.24,-92.06 -13.76,-10.53 -4.08,-6.5 -22.61,-13.21l0 -35.82c20.29,-8.2 14.71,-7.97 25.06,-28.67l15.04 -65.57c0.63,-2.27 1.58,-4.48 2.28,-6.68 1.32,-4.16 3.9,-8.61 5.21,-12.69 11.99,-37.33 11.64,-112.73 7.14,-156.07 -5.63,-54.42 8.01,-23.96 -18.91,-34.82l0 -35.83zm-161.2 1003.07l-35.83 0 0 214.94c26.24,10.59 5.13,-3.78 16.13,19.69l14.99 47.7c9.9,30.89 -5.59,28.69 22.62,40.08l0 107.47c-28.84,10.44 -5.33,-7.44 -26.58,18.19 -7.17,13.76 -14.5,27.44 -21.34,41.36 -1.45,2.92 -6.23,11.67 -9.16,17.72l-17.44 46.57c-1.33,4.19 -3.24,8.76 -4.37,12.88l0.66 30.36c11.52,44.12 14.93,122.99 0.37,167.03l-36.17 142.96c-19.79,37.57 -28.06,6.11 -29.27,60.28l-17.91 0c-12.13,-30.04 -4.35,1.32 -77.94,-47.43l-29.53 -15.26c-37.33,-17.85 -48.26,-32.88 -87.79,-46.55l-97.88 -63.32c-1.67,-1.04 -4.03,-2.22 -5.75,-3.21 -19.48,-11.36 -21.12,-5.36 -35.87,-26.82 -3.6,-5.22 -6.26,-12.09 -9.08,-17.79l-76.61 -209.98c-0.8,-1.95 -2.06,-4.14 -2.94,-6.02l-9.65 -17.21c-23.62,-46.6 -26.93,-95.61 -43.78,-144.3 -3.74,-11.23 -7.33,-22.64 -11.38,-33.75 -0.8,-2.19 -1.83,-4.44 -2.64,-6.62l103.1 -322.65c7.38,-16.17 1.14,-0.12 7.7,-19.17 4.28,-12.41 6.83,-23.47 10.47,-34.32l32.43 -83.99c3.06,-6.13 6.03,-11.9 8.49,-18.38l89.56 -214.94c1.72,-4.53 2.93,-8.96 4.36,-13.55l184.91 -433.04c17.61,-52.22 40.21,-79 56.14,-114.03l32.35 -84.08 50.89 -65.54c0,58.68 -18.73,73.2 -18.09,134.16 0.39,37.45 -5.94,78.16 1.96,114.83l12.34 32.44c7.58,27.62 0.24,48.21 5.66,74.94 8.59,42.45 29.52,80.6 9.82,138.94l-12.2 68.4c0.16,60.21 -9.78,127.72 2.2,186.9l66.9 175.95c13.4,49.82 -19.99,71.63 -25.4,116.79 -2.73,22.75 -1.27,-1.27 10.55,31.37zm161.2 -1164.28l-53.74 0c0,-89.21 6.5,-44.97 16.05,-91.42 2.67,-12.98 1.87,-20.84 1.87,-33.96l71.64 0 -31.72 102.61c-2.96,11.01 -3.73,6.13 -4.1,22.77zm429.88 -197.02c30.05,0.66 31.2,-7 51.76,28.85 3.82,8.04 8.05,16.25 11.29,24.53l26.51 89.91c-62.75,-1.4 -25.55,-19.14 -71.64,-35.83l0 -89.55c-44.21,-11.73 -4.57,-1.63 -17.92,-17.91zm-429.88 -125.39l0 -89.56c24.82,-8.98 27.76,-19.86 39.86,-31.78 23.65,-23.3 29.72,-21.51 49.7,-21.95 0,24.43 3.41,28.21 -5.82,47.91l-23.43 30.31c-1.07,1.61 -2.31,3.95 -3.33,5.62 -16.31,26.62 -24.17,47.58 -56.98,59.45zm358.24 -250.76l0 107.47c-0.01,0 -13.48,1.61 -27.46,-17.7 -18.52,-25.59 -20.77,-72.32 27.46,-89.77zm-53.74 -53.74l35.82 0 0 35.82 -35.82 0 0 -35.82zm-199.31 -409.69c8.62,95.91 -66.6,54.96 -108.71,28.11 -169.18,-107.87 -107.96,-314.57 109.61,-297.51 11.85,66.65 -29.49,55.88 -75.14,145.58 -10.78,21.17 -22.31,69.71 -7.67,98.18 15.6,30.35 46.88,18.3 81.91,25.64z"/>
  <path class="fil0" d="M2466.88 11907c43.14,235.02 218.05,600.93 163.93,502.65 -14.08,0 -28.9,1.81 -42.19,-2.59 -20.86,-6.89 -21.24,-12.87 -33.52,-38.13 -0.91,-1.85 -2.08,-4.12 -2.93,-6.02 -15.2,-33.97 -101.46,-450.06 -85.29,-455.91zm969.96 645.94c0,-30.04 -4.18,-77.92 1.78,-105.69 63.18,-294.74 120.54,-607.91 178.38,-905.29 5.65,-29.1 26.43,-76.24 37.32,-105.97l98.36 -89.71c1.94,-0.87 4.27,-1.89 6.26,-2.7 135.17,-25.73 1228.42,-82.49 1294.84,4.4 74.45,172.93 79.7,712.36 84.69,936.28 -661.33,0 -1284.36,259.37 -1701.63,268.68zm-161.2 -967.24c139.72,37.07 49.22,-76.79 179.17,-152.2l35.77 -9c0,36.63 -11.8,68.79 -20.36,105.03 -35.7,208.47 -26.27,220.2 -55.22,329.88 -31.98,135.28 -50.67,263.26 -71.17,399.89 -1.46,9.72 -3.94,19.61 -10.53,37.85 -21.11,80 -17.18,172.31 -40.18,264.32 -7.26,27.37 7.89,17.06 -17.48,27.3 -11.44,28.33 -15.81,15.19 -53.05,27.56 -29.46,9.78 -105.15,8.26 -143.99,8.26 -88.92,-179.85 -115.87,-240.74 -322.41,-214.94 44.27,-122.27 213.52,-39.28 232.85,-89.56 162.11,0 227.45,-1081.27 232.99,-1226.83 1.46,-38.42 3.56,-71.19 26.43,-98.96 17.41,-21.15 36.85,-17.6 63,-17.6 -0.4,109.3 -16.06,560.71 -21.15,578.9 -10.02,35.76 0.9,-12.93 -14.67,30.1zm-125.39 -752.29c-109.48,0 -261.25,-17.91 -411.97,-17.91 -114.6,375.56 -151.88,741.48 -293.15,1157.7 -0.73,2.14 -1.66,4.43 -2.39,6.56l-104.75 316.19c-14.1,46.65 -25.37,67.21 -29.91,113.38l-34.47 117.78c-17.41,89.49 -18.76,46.31 -18.95,178.09 -0.07,45.98 -5.66,89.3 14.4,128.89l18.05 35.68c1.24,2.44 4.69,9.56 6.02,11.9l122.22 74.81c79.2,27.59 184.17,-11.89 262.97,14.66l95.78 11.69c-1.2,54.24 5.81,26.25 -17.91,35.82l0 179.12c19.26,6.96 8.93,-0.18 22.27,13.56 13.16,13.57 6.58,3 13.56,22.26l125.38 0c2.85,-7.88 12.85,-34.91 53.74,-35.82 0.66,-29.79 7.52,-26.24 13.68,-49.01 0.64,-2.39 1.23,-4.69 1.8,-7.15l19.83 -132.43c-0.72,-29.67 -6.14,-52.27 18.42,-62.18 9.64,-23.88 48.85,-20.65 78.1,-29.37 11.71,-3.49 4.44,-2.01 21.49,-5.37 686.04,-264.49 1904.37,-464.33 2121.48,-404.09 67.24,-23.99 145.84,-0.7 215.94,-7.96 54.41,-5.64 23.96,8.01 34.82,-18.91 33.97,-13.71 18.25,-32.99 17.93,-107.46 0.36,-592.01 70.06,-1144.61 -37.6,-1735.7 -123.91,-111.01 -2278.52,-137.52 -2326.78,195.27z"/>
  <path class="fil0" d="M3293.55 13502.27c11.77,-15.96 -34.47,-37.99 -118.17,-57.49 -187.59,-43.71 -563.4,-74.77 -896.2,3.52 -112,26.35 -100.92,10.02 -125.35,123.74 -53.78,250.33 -129.5,897.56 214.33,911.16 410.41,-120.71 925.39,-508.8 925.39,-980.93z"/>
  <path class="fil1" d="M20147.8 17012.99c0.94,-957.17 1387.57,-1120.04 1625.56,-191.85 294.46,1148.48 -1626.68,1335.12 -1625.56,191.85zm-102.08 116.42c42.09,229.95 159.73,444.7 340.86,576.96 424.99,310.31 956.7,272.01 1311.13,-120.65 250.75,-277.81 278.35,-731.02 75.86,-1042.38 -239.08,-367.64 -514.3,-455.89 -926.73,-444.08 -483.33,13.85 -886.8,562.17 -801.12,1030.15z"/>
  <path class="fil0" d="M5657.91 14003.8l0 -770.21c-92.55,0 -185.09,0 -277.63,0 -39.89,0 -97.02,-3.48 -134.7,-0.35 -87.72,7.29 -187.25,88.24 -226.53,149.62 -27.27,53.54 -31.81,75.01 -48.34,130.77 -20.01,62.52 -17.99,276.43 -11.39,347.56 2.29,24.65 6.42,32.31 8,61.54l18.93 63.05c1.53,2.19 6.8,7.48 8.78,9.19 65.3,56.15 547.87,8.83 662.88,8.83z"/>
  <path class="fil1" d="M21002.59 13152.56c72.47,-170.26 -39.77,-196.54 -152.58,-262.32l-734.85 -428.93c-101.85,-65.16 -172.31,-28.6 -223.36,69.06 -34.21,65.45 4.88,38.67 184.52,139.45l609.34 322.1c43.63,23.9 288.76,155.98 316.93,160.64z"/>
  <path class="fil0" d="M20256.08 11287.26c9.17,89.39 2.37,112.35 -54.93,145.6 -88.3,51.23 -234.97,-30.8 -87.25,-141.89 62.47,-46.99 86.94,-29.23 142.18,-3.71zm344.56 199.93c25.34,-136.49 -99.1,-255.83 -261.6,-281.34 -254.61,-39.99 -466.37,200.38 -283.92,392.67 54.33,57.27 99.81,70.26 198,80.47 175.64,18.23 318.45,-35.19 347.52,-191.8z"/>
  <path class="fil2" d="M2218.84 14971.04l699.22 0.66c82.42,-1.12 22.48,-17.09 88.9,-18.57l0 -197.03c-21.14,-7.65 -27.84,-13.77 -35.82,-35.83l-770.21 0c-0.6,26.64 -31.48,65.35 -17.67,169.92l23.55 57.05c0.93,1.78 2.15,4.21 3.04,5.93 4.52,8.8 0.43,-5.77 8.99,17.87z"/>
  <path class="fil1" d="M24044.4 13895.9c-71.63,76.16 58.46,121.84 -6.55,235.71 -85.21,149.23 -363.45,109.75 -392.97,-51.08 -23.48,-127.87 108.6,-99.09 122.47,-197.46 -131.03,-79.7 -275.04,57.54 -244.13,194.08 32.84,145.06 104.34,212.41 227.57,273.99 86.36,43.16 263.16,-2.6 357.6,-122.2 125.56,-159.01 -5.86,-322.52 -63.99,-333.04z"/>
  <path class="fil2" d="M22431.8 14256.05c-25.34,18.82 -26.58,17.29 -54.52,32.67l-96.93 82.64c-34.05,37.28 -5.85,25.34 -27.78,64.46l-59.51 -14.23c-9.97,-44.85 49.7,-105.13 76.67,-123.61 42.57,-29.18 92.09,-43.64 162.07,-41.93zm0 0c-10.82,-30.28 -83.57,-24.22 -114.95,-18.81 -42.5,7.32 -62.18,23.22 -85.8,48.71 -83.81,90.46 -45.53,136.05 -22.1,192.19 14.93,35.78 16.95,68.34 39.72,94.55 396.8,405.16 679.27,-338.04 183.13,-316.64z"/>
  <path class="fil1" d="M25078.8 12287.34c-187.67,46.53 -127.75,274.63 84.25,246.54 183.87,-24.36 125.53,-298.55 -84.25,-246.54z"/>
  <polyline class="fil3" points="14451.17,15725.5 14452.26,15387.65 14281.88,15387.47 14280.77,15727.09 "/>
  <path class="fil1" d="M23503.98 11961.43c21.05,37.04 50.47,43.67 86.33,60.36l282.67 147.2c58.8,30.45 345.86,176.91 389.83,172.47 10.03,-51.98 -18.74,-61.91 -51.68,-80.86 -116.09,-66.8 -174.99,-89.47 -292.45,-146.25 -62.26,-30.09 -341.78,-193.84 -398.68,-184.32l-16.02 31.4z"/>
  <polyline class="fil3" points="14585.32,15725.8 14751.04,15727.59 14748.86,15384.33 14593.44,15387.93 "/>
  <path class="fil4" d="M19883.98 13556.01c53.78,0 49.49,9.7 77.15,-17.92l-242.41 -205.8c-42.92,-35.47 -231.99,-179.13 -259.75,-186.43l-35.75 50.13c23.92,37.62 177.59,145.21 227.3,177.79 41.34,27.09 77.54,61.97 116.88,88.76 24.58,16.73 34.5,27.28 56.59,41.79 33.16,21.79 35.48,16.11 59.99,51.68z"/>
  <path class="fil1" d="M22474.83 7414.53c-35.03,-7.34 -66.31,4.71 -81.91,-25.64 -14.64,-28.47 -3.11,-77.01 7.67,-98.18 45.65,-89.7 86.99,-78.93 75.14,-145.58 -217.57,-17.06 -278.79,189.64 -109.61,297.51 42.11,26.85 117.33,67.8 108.71,-28.11z"/>
  <path class="fil1" d="M20256.08 11287.26c-55.24,-25.52 -79.71,-43.28 -142.18,3.71 -147.72,111.09 -1.05,193.12 87.25,141.89 57.3,-33.25 64.1,-56.21 54.93,-145.6z"/>
  <path class="fil4" d="M23246.78 11847.27c2.56,-72.94 -88.08,-83.74 -226.42,-150.84 -43.88,-21.29 -223.8,-112.46 -261.51,-106.48 3.89,68.58 146.17,125.71 214.13,153.82 24.67,10.2 42.03,13.8 68.47,20.78 30.46,8.04 46.98,18.1 70.24,28.47 20.5,9.14 42.6,16.71 63.6,26.16 23.75,10.69 44.68,22.59 71.49,28.09z"/>
  <path class="fil4" d="M22431.8 14256.05c-69.98,-1.71 -119.5,12.75 -162.07,41.93 -26.97,18.48 -86.64,78.76 -76.67,123.61l59.51 14.23c21.93,-39.12 -6.27,-27.18 27.78,-64.46l96.93 -82.64c27.94,-15.38 29.18,-13.85 54.52,-32.67z"/>
  <path class="fil4" d="M22472.38 11469.28c-4.14,34.59 58.43,63.31 58.47,63.31 22.48,-8.23 18.87,-7.39 32.88,-20.54 -8.42,-22.17 -32.96,-41.53 -56.05,-48.86 -59.97,-19.07 -18.48,-5.38 -35.3,6.09z"/>
  <path class="fil5" d="M19615.48 13573.91c-7.36,-6.13 -0.56,-7.65 -22.17,-13.39l0 13.39 22.17 0z"/>
  <polygon class="fil6" points="13789.88,11066.26 13771.96,11046.7 13771.96,11066.26 "/>
  <path class="fil7" d="M24160.82 11415.54c0,10.53 19.28,20.18 13.87,0 -5.42,-20.23 22.78,-0.24 -4.14,-2.65 -11.28,-1.02 -9.73,-15.55 -9.73,2.65z"/>
  <path class="fil8" d="M22996.56 8818.33c0,10.53 19.27,20.18 13.86,0 -5.42,-20.24 22.79,-0.24 -4.14,-2.66 -11.28,-1.01 -9.72,-15.55 -9.72,2.66z"/>
  <g id="_2738734856752">
   <path class="fil9" d="M13257.06 11566.91l299.92 0c-8.53,-84.07 22.96,-217.96 52.82,-293.89l77.34 0c7.62,4.85 48.58,264.08 50.93,293.89l290.49 0c-13.2,-21.6 -16.98,-41.99 -22.63,-68.38 -5.66,-22.79 -52.82,-220.71 -52.82,-225.51 58.47,-4.79 84.88,-14.39 107.52,-50.37 18.86,-28.79 28.29,-79.17 37.72,-118.76 22.64,-92.36 58.48,-187.12 -54.7,-208.71 -45.27,-8.4 -105.63,-4.8 -152.79,-4.8l-469.69 0c0,12 16.97,23.99 1.88,92.36 -30.09,153.12 -85.45,425.01 -145.24,551.78 -5.66,10.79 -13.21,23.99 -20.75,32.39zm381.03 -406.64c15.09,2.4 116.96,1.2 139.59,1.2 72.1,0 67.74,-65.77 81.11,-129.55 5.66,-31.18 -13.2,-29.99 -39.61,-29.99 -47.16,0 -94.32,0 -141.47,0l-39.62 158.34z"/>
   <path class="fil9" d="M14049.31 11566.9l594.19 0c3.77,0 7.55,-10.79 9.43,-14.39 7.55,-17.99 47.16,-107.96 49.05,-115.15 -135.82,23.99 -207.5,17.99 -345.2,17.99l45.27 -182.33c67.91,0 203.72,-7.19 264.09,8.4 9.43,2.4 24.52,8.4 32.06,9.6l35.84 -147.54c-26.4,4.8 -32.06,9.59 -66.02,14.39 -39.61,4.8 -149.02,3.6 -198.06,3.6 -11.32,0 -28.3,0 -39.61,-1.2l37.72 -158.34c115.07,0 201.84,-9.59 309.36,18 5.66,-20.39 15.09,-44.38 20.75,-64.78 3.77,-9.59 22.63,-58.77 22.63,-64.77l-601.73 0c0,19.19 3.77,19.19 1.89,49.18 0,119.95 -99.98,504.99 -160.34,611.75 -3.77,4.8 -9.43,10.8 -11.32,15.59z"/>
   <path class="fil9" d="M15384.82 11566.9l596.08 0c3.77,0 13.2,-26.38 15.09,-31.18 5.66,-10.8 9.43,-21.59 13.21,-32.39 5.65,-10.79 26.4,-58.78 28.29,-65.97 -32.07,7.19 -33.95,10.79 -73.57,15.59 -30.18,2.4 -60.36,2.4 -88.65,2.4 -60.37,0 -122.61,0 -182.98,0l45.28 -182.33c9.43,0 145.24,0 156.56,0 41.5,0 69.79,0 109.41,8.4 7.54,2.4 24.52,8.4 30.18,9.6l37.72 -147.54c-26.4,5.99 -33.95,9.59 -66.02,14.39 -39.61,4.8 -149.02,3.6 -198.06,3.6 -11.32,0 -30.18,0 -39.61,-1.2l37.72 -157.14c7.55,-1.2 158.45,-1.2 171.66,-1.2 41.5,0 79.22,-1.19 118.84,8.4 9.43,2.4 26.4,8.4 33.95,9.6l11.32 -129.55 -586.65 0c15.09,137.94 -79.22,537.38 -158.45,660.93 -1.88,4.8 -7.54,13.2 -11.32,15.59z"/>
   <path class="fil9" d="M16633.57 11566.9c7.54,-2.39 52.81,-123.54 58.47,-136.74 -9.43,3.6 -18.86,8.4 -28.29,12 -33.96,10.79 -73.57,11.99 -107.52,13.19 -54.71,0 -107.52,0 -160.34,0 -26.41,0 -54.7,1.2 -54.7,-27.59 0,-56.38 60.36,-410.23 137.7,-424.63 39.61,-4.79 230.13,-3.59 273.51,7.2 5.66,1.2 26.41,9.6 28.3,9.6l13.2 -129.55c-13.2,-1.2 -222.58,0 -241.44,0 -39.62,0 -81.12,0 -120.73,0 -39.61,0 -75.45,-2.4 -111.29,8.4 -101.86,27.59 -130.16,116.35 -158.45,205.11 -26.41,100.76 -54.71,196.72 -71.68,291.48 -15.09,81.57 -3.78,143.95 66.02,164.34 33.95,9.59 77.34,7.19 113.18,7.19l364.06 0z"/>
   <path class="fil9" d="M14815.16 11029.52c35.84,-16.79 45.27,-26.39 94.31,-27.59 20.75,0 41.5,0 62.25,0 20.75,0 41.5,0 62.25,1.2 -1.89,10.8 -5.66,23.99 -9.43,34.79 -26.41,118.75 -75.46,413.83 -143.36,515.79 -1.89,3.6 -5.66,9.6 -9.43,13.19l301.81 0c-22.64,-119.95 82.99,-417.43 115.06,-548.17 0,-3.6 1.89,-15.6 5.66,-16.8 37.73,0 77.34,0 116.95,0 16.98,0 35.84,1.2 50.93,7.2 22.64,7.2 32.07,17.99 37.73,20.39l13.2 -139.14 -643.23 0 -54.7 139.14z"/>
  </g>
  <g id="_2738734858096">
   <path class="fil9" d="M21595.92 12408.66l153.69 72.55c15.97,-45.14 64.49,-106.13 98.16,-137.81l39.63 18.7c2.74,4.33 -38.99,147.08 -44.99,162.92l148.85 70.28c-1.54,-14.26 1.46,-25.63 4.94,-40.52 2.62,-13.04 26.33,-125.87 27.49,-128.33 31.13,11.68 46.98,13.16 67.29,0.19 16.63,-10.19 33.65,-33.72 48.06,-51.72 33.94,-41.86 75.23,-81.75 22.46,-120.19 -21.17,-15.25 -52.97,-28.01 -77.14,-39.42l-240.68 -113.63c-2.91,6.15 2.89,16.4 -21.38,47.79 -52.47,71.18 -146.6,197.11 -207.91,247.61 -5.52,4.16 -12.57,9.1 -18.47,11.58zm293.63 -116.2c7.15,4.88 59.64,28.91 71.24,34.38 36.94,17.45 50.62,-17.31 72.9,-46.76 10.44,-14.61 0.49,-18.56 -13.04,-24.95 -24.17,-11.41 -48.34,-22.81 -72.5,-34.22l-58.6 71.55z"/>
   <path class="fil9" d="M22001.9 12600.31l304.48 143.75c1.93,0.91 6.48,-3.71 8.32,-5.1 8.21,-7.39 50.28,-43.91 52.98,-47.14 -75.4,-20.56 -110.68,-40.98 -181.24,-74.29l67.31 -82.48c34.8,16.43 106.13,45.6 133.29,68.19 4.26,3.51 10.54,10.24 14.11,12.68l54.06 -66.94c-14.69,-3.93 -18.75,-2.84 -37.31,-8.59 -21.46,-7.13 -77.24,-34.21 -102.37,-46.07 -5.8,-2.74 -14.5,-6.85 -20.01,-10.2l57.64 -72.01c58.96,27.84 105.75,43.91 154.17,84.06 7.83,-9.08 18.47,-19.09 26.3,-28.17 4.26,-4.01 25.82,-24.65 27.27,-27.72l-308.35 -145.57c-4.64,9.84 -2.71,10.75 -10.93,25.66 -29.01,61.47 -173.39,234.59 -230.15,274.69 -3.1,1.55 -7.45,3.25 -9.57,5.25z"/>
   <path class="fil9" d="M22686.26 12923.4l305.45 144.2c1.93,0.91 13.15,-10.33 15.28,-12.33 5.51,-4.17 10.05,-8.79 14.6,-13.4 5.51,-4.17 27.75,-23.74 30.46,-26.97 -18.18,-4.07 -20.01,-2.68 -41.47,-9.8 -16.05,-6.08 -31.52,-13.38 -46.01,-20.22 -30.94,-14.6 -62.83,-29.66 -93.77,-44.27l67.31 -82.47c4.83,2.28 74.43,35.13 80.23,37.87 21.26,10.04 35.76,16.89 54.03,30.77 3.29,3.06 10.54,10.24 13.15,12.22l55.02 -66.48c-14.98,-3.31 -19.72,-3.29 -37.31,-8.59 -21.46,-7.13 -77.24,-34.21 -102.37,-46.07 -5.8,-2.74 -15.46,-7.3 -20.01,-10.2l57.35 -71.4c4.16,1.21 81.48,37.72 88.25,40.92 21.27,10.03 40.89,18.55 58.87,33.05 4.25,3.51 11.5,10.69 15.07,13.13l37.14 -63.65 -300.61 -141.92c-25.64,74.34 -170.6,256.21 -241.09,300.35 -2.13,2.01 -7.06,4.94 -9.57,5.26z"/>
   <path class="fil9" d="M23326.16 13225.49c4.44,0.59 56.95,-50.54 63.04,-55.93 -5.7,-0.44 -11.69,-0.26 -17.4,-0.7 -20.01,-2.68 -40.6,-11.65 -58.29,-19.25 -28.03,-13.23 -55.09,-26.01 -82.16,-38.78 -13.53,-6.39 -28.32,-12.62 -21.36,-27.37 13.64,-28.89 130.18,-195.62 173.29,-184.29 21.46,7.13 118.8,53.83 138.42,69.86 2.61,1.98 11.21,11.31 12.18,11.76l38.1 -63.19c-6.47,-3.81 -114.06,-53.85 -123.73,-58.41 -20.29,-9.58 -41.56,-19.62 -61.86,-29.2 -20.3,-9.59 -38.08,-19.49 -59.06,-22.62 -58.87,-10.51 -94.84,28.13 -130.82,66.77 -37.9,45.25 -75.62,87.57 -107.24,132.03 -27.47,38.14 -36.76,72.84 -5.93,100.18 15.08,13.13 37.89,22.4 56.26,31.07l186.56 88.07z"/>
   <path class="fil9" d="M22524.34 12510.21c22.43,0.07 29.59,-2.57 55.01,8.68 10.63,5.02 21.26,10.04 31.9,15.06 10.63,5.02 21.26,10.04 31.6,15.67 -3.57,5.08 -8.7,10.93 -13.24,15.55 -42.26,54.46 -138.78,193.81 -198.24,229.63 -1.84,1.38 -5.23,3.54 -8.03,4.48l154.66 73.01c17.42,-66.95 143.51,-193.83 191.57,-253.07 0.88,-1.84 4.74,-7.53 6.97,-7.24 19.33,9.13 39.63,18.71 59.93,28.3 8.7,4.1 18.07,9.28 24.35,16 9.86,9.17 12.08,16.98 14.4,19.58l40.43 -68.11 -329.61 -155.61 -61.7 58.07z"/>
  </g>
  <path class="fil10" d="M12128.28 14367.32c0,-12.4 -2.44,-23.07 -7.32,-31.91 -4.99,-8.95 -13.42,-15.95 -25.39,-21 -8.32,-3.55 -17.96,-5.73 -29.05,-6.54 -11.08,-0.8 -24.06,-1.14 -38.8,-1.14l-44.46 0 0 133.57 37.8 0c19.63,0 36.04,-1.03 49.23,-2.98 13.3,-2.07 24.39,-6.54 33.38,-13.66 8.53,-6.88 14.74,-14.46 18.73,-22.83 3.89,-8.38 5.88,-19.51 5.88,-33.51zm195.58 347.71l-152.56 0 -131.61 -183.84 -56.43 0 0 183.84 -125.07 0 0 -500.57 209 0c28.61,0 53.11,1.72 73.62,5.05 20.62,3.33 39.8,10.67 57.77,21.8 18.18,11.25 32.7,25.71 43.35,43.5 10.75,17.78 16.07,40.16 16.07,67.02 0,36.95 -8.21,67.01 -24.72,90.31 -16.52,23.29 -40.14,42.69 -70.85,58.18l161.43 214.71z"/>
  <polygon id="_1" class="fil10" points="12728.44,14715.03 12378.51,14715.03 12378.51,14214.46 12728.44,14214.46 12728.44,14311.55 12503.59,14311.55 12503.59,14397.61 12712.47,14397.61 12712.47,14494.7 12503.59,14494.7 12503.59,14617.95 12728.44,14617.95 "/>
  <polygon id="_2" class="fil10" points="13339.91,14715.03 13214.85,14715.03 13214.85,14379.83 13125.59,14597.29 13039.99,14597.29 12950.75,14379.83 12950.75,14715.03 12832.99,14715.03 12832.99,14214.46 12977.91,14214.46 13086.23,14465.55 13194.11,14214.46 13339.91,14214.46 "/>
  <path id="_3" class="fil10" d="M13933.86 14464.86c0,79.76 -22.06,143.1 -66.3,190.04 -44.24,46.93 -105.33,70.46 -183.28,70.46 -77.83,0 -138.81,-23.53 -183.05,-70.46 -44.24,-46.94 -66.3,-110.28 -66.3,-190.04 0,-80.33 22.06,-143.9 66.3,-190.61 44.24,-46.71 105.22,-70.12 183.05,-70.12 77.5,0 138.49,23.41 182.94,70.12 44.47,46.71 66.64,110.28 66.64,190.61zm-165.42 126.81c12.08,-15.27 21.06,-33.17 26.94,-53.94 5.87,-20.77 8.76,-45.1 8.76,-73.21 0,-29.96 -3.33,-55.55 -10.09,-76.66 -6.65,-21 -15.52,-38.1 -26.27,-51.07 -11.1,-13.42 -23.85,-23.18 -38.26,-29.26 -14.41,-6.08 -29.39,-9.07 -44.9,-9.07 -15.86,0 -30.72,2.87 -44.69,8.72 -14.08,5.86 -26.83,15.5 -38.58,28.92 -10.87,12.63 -19.63,29.84 -26.5,51.99 -6.76,22.03 -10.2,47.62 -10.2,76.77 0,29.84 3.32,55.31 9.87,76.2 6.65,21 15.41,38.1 26.17,51.3 10.86,13.19 23.5,22.95 38.02,29.26 14.53,6.31 29.83,9.41 45.91,9.41 15.96,0 31.26,-3.22 45.78,-9.64 14.53,-6.31 27.17,-16.3 38.04,-29.72z"/>
  <path id="_4" class="fil10" d="M14245.97 14723.98c-36.14,-0.23 -69.29,-5.74 -99.34,-16.64 -30.05,-10.9 -55.88,-27.2 -77.51,-49 -21.73,-21.57 -38.58,-48.54 -50.56,-80.79 -12.08,-32.36 -18.06,-69.89 -18.06,-112.46 0,-39.71 5.75,-75.74 17.17,-108.1 11.54,-32.36 28.28,-60.02 50.12,-83.2 21.07,-22.15 47.13,-39.36 78.17,-51.53 31.15,-12.04 65.08,-18.13 102,-18.13 20.29,0 38.69,1.15 55.11,3.56 16.3,2.3 31.49,5.39 45.34,9.18 14.53,4.36 27.62,9.07 39.48,14.35 11.86,5.27 22.17,10.09 31.04,14.68l0 121.42 -14.3 0c-6.1,-5.4 -13.75,-11.71 -22.95,-19.05 -9.2,-7.35 -19.63,-14.58 -31.38,-21.69 -11.86,-7.12 -24.83,-13.08 -38.7,-18.02 -13.85,-4.93 -28.71,-7.34 -44.45,-7.34 -17.63,0 -34.26,2.87 -50.12,8.6 -15.85,5.63 -30.49,15.15 -43.91,28.35 -12.74,12.85 -23.17,29.72 -31.04,50.72 -7.88,21.12 -11.87,46.71 -11.87,76.66 0,31.44 4.33,57.61 12.86,78.72 8.54,21 19.3,37.64 32.38,49.69 13.2,12.4 27.94,21.12 44.13,26.4 16.3,5.27 32.38,7.91 48.12,7.91 15.19,0 30.27,-2.29 45.13,-7 14.74,-4.7 28.49,-11.13 41.13,-19.16 10.53,-6.54 20.4,-13.43 29.49,-20.77 9.1,-7.46 16.63,-13.77 22.51,-19.17l12.97 0 0 119.81c-12.75,5.74 -27.72,12.28 -44.9,19.28 -17.08,7.11 -35.48,12.51 -55.22,16.29 0,3.33 0.22,7.58 0.56,12.74 0.33,5.17 0.44,9.76 0.44,13.77 0,36.15 -10.76,64.04 -32.27,83.55 -21.5,19.5 -49.55,29.26 -84.26,29.26 -7.54,0 -18.52,-0.57 -32.93,-1.84 -14.3,-1.26 -26.39,-3.32 -36.15,-6.31l0 -67.59 7.43 0c5.22,2.41 12.86,5.05 22.84,7.69 9.88,2.64 19.4,4.02 28.5,4.02 17.41,0 30.49,-4.37 39.47,-13.2 8.98,-8.84 13.53,-22.15 13.53,-39.82l0 -15.84z"/>
  <path id="_5" class="fil10" d="M14956.88 14715.03l-129.05 0 -33.59 -101.22 -177.74 0 -33.7 101.22 -126.18 0 178.41 -500.57 143.46 0 178.39 500.57zm-192.58 -192.79l-58.99 -177.99 -58.98 177.99 117.97 0zm74.17 -476.47c-2.11,37.87 -11.08,65.87 -26.83,84.12 -15.63,18.24 -37.58,27.42 -65.75,27.42 -10.08,0 -19.84,-2.06 -29.04,-6.31 -9.21,-4.13 -17.63,-8.61 -25.17,-13.31 -6.66,-4.25 -14.09,-8.61 -22.29,-13.08 -8.09,-4.36 -14.86,-6.54 -20.29,-6.54 -10.53,0 -17.63,3.55 -21.18,10.78 -3.54,7.23 -5.65,17.45 -6.31,30.53l-71.18 0c1.32,-33.97 10.31,-61.05 27.16,-81.25 16.74,-20.2 38.47,-30.3 65.08,-30.3 10.42,0 20.18,1.96 29.49,5.97 9.32,4.02 17.86,8.38 25.72,13.08 7.99,4.59 15.41,8.84 22.4,12.86 6.88,4.01 13.3,5.96 19.19,5.96 10.31,0 17.4,-3.55 21.39,-10.78 3.88,-7.23 5.99,-16.99 6.43,-29.15l71.18 0z"/>
  <path id="_6" class="fil10" d="M15497.29 14464.86c0,79.76 -22.06,143.1 -66.3,190.04 -44.24,46.93 -105.33,70.46 -183.28,70.46 -77.82,0 -138.81,-23.53 -183.05,-70.46 -44.24,-46.94 -66.3,-110.28 -66.3,-190.04 0,-80.33 22.06,-143.9 66.3,-190.61 44.24,-46.71 105.23,-70.12 183.05,-70.12 77.51,0 138.49,23.41 182.94,70.12 44.47,46.71 66.64,110.28 66.64,190.61zm-165.42 126.81c12.08,-15.27 21.07,-33.17 26.94,-53.94 5.87,-20.77 8.76,-45.1 8.76,-73.21 0,-29.96 -3.33,-55.55 -10.09,-76.66 -6.65,-21 -15.52,-38.1 -26.27,-51.07 -11.1,-13.42 -23.85,-23.18 -38.25,-29.26 -14.42,-6.08 -29.4,-9.07 -44.91,-9.07 -15.86,0 -30.72,2.87 -44.69,8.72 -14.07,5.86 -26.83,15.5 -38.58,28.92 -10.87,12.63 -19.63,29.84 -26.5,51.99 -6.76,22.03 -10.2,47.62 -10.2,76.77 0,29.84 3.32,55.31 9.87,76.2 6.65,21 15.41,38.1 26.17,51.3 10.86,13.19 23.5,22.95 38.03,29.26 14.52,6.31 29.82,9.41 45.9,9.41 15.96,0 31.26,-3.22 45.78,-9.64 14.54,-6.31 27.17,-16.3 38.04,-29.72z"/>
  <path id="_7" class="fil10" d="M16276.96 14465.2c0,46.71 -10.31,88.37 -30.82,125.32 -20.63,36.84 -46.57,65.07 -77.95,84.8 -23.62,14.81 -49.56,25.14 -77.72,30.99 -28.17,5.85 -61.42,8.72 -100.01,8.72l-170.53 0 0 -500.57 175.41 0c39.36,0 73.4,3.44 102.01,10.21 28.6,6.89 52.65,16.53 72.06,29.15 33.37,21 59.65,49.46 78.83,85.15 19.18,35.81 28.72,77.92 28.72,126.23zm-129.72 -1.14c0,-32.82 -5.77,-60.94 -17.3,-84.35 -11.53,-23.41 -29.71,-41.66 -54.78,-54.85 -12.63,-6.43 -25.6,-10.9 -38.91,-13.2 -13.19,-2.41 -33.15,-3.56 -59.87,-3.56l-31.38 0 0 312.6 31.38 0c29.49,0 51.11,-1.38 64.86,-4.25 13.86,-2.75 27.28,-7.8 40.46,-15.26 22.52,-13.31 39.14,-31.33 49.69,-53.82 10.53,-22.38 15.85,-50.26 15.85,-83.31z"/>
  <polygon id="_8" class="fil10" points="16722.01,14715.03 16372.09,14715.03 16372.09,14214.46 16722.01,14214.46 16722.01,14311.55 16497.16,14311.55 16497.16,14397.61 16706.04,14397.61 16706.04,14494.7 16497.16,14494.7 16497.16,14617.95 16722.01,14617.95 "/>
  <polygon id="_9" class="fil10" points="17403.89,14715.03 17053.97,14715.03 17053.97,14214.46 17403.89,14214.46 17403.89,14311.55 17179.04,14311.55 17179.04,14397.61 17387.92,14397.61 17387.92,14494.7 17179.04,14494.7 17179.04,14617.95 17403.89,14617.95 "/>
  <polygon id="_10" class="fil10" points="17948.17,14715.03 17827.88,14715.03 17622.87,14371.45 17622.87,14715.03 17508.44,14715.03 17508.44,14214.46 17657.57,14214.46 17833.75,14501.24 17833.75,14214.46 17948.17,14214.46 "/>
  <polygon id="_11" class="fil10" points="18450.2,14311.55 18299.19,14311.55 18299.19,14715.03 18174.13,14715.03 18174.13,14311.55 18023.12,14311.55 18023.12,14214.46 18450.2,14214.46 "/>
  <path id="_12" class="fil10" d="M18948.25 14533.71c0,61.86 -18.18,109.25 -54.44,142.19 -36.37,32.93 -89.92,49.46 -160.55,49.46 -70.73,0 -124.17,-16.53 -160.43,-49.46 -36.26,-32.94 -54.33,-80.22 -54.33,-141.84l0 -319.6 125.06 0 0 312.02c0,34.78 6.99,60.6 21.07,77.7 14.08,16.98 36.92,25.47 68.63,25.47 31.16,0 53.88,-8.15 68.3,-24.56 14.41,-16.29 21.62,-42.57 21.62,-78.61l0 -312.02 125.07 0 0 319.25z"/>
  <polygon id="_13" class="fil10" points="19413.92,14715.03 19065.32,14715.03 19065.32,14214.46 19190.39,14214.46 19190.39,14617.95 19413.92,14617.95 "/>
  <polygon id="_14" class="fil10" points="19922.26,14715.03 19797.2,14715.03 19797.2,14494.7 19614.26,14494.7 19614.26,14715.03 19489.19,14715.03 19489.19,14214.46 19614.26,14214.46 19614.26,14397.61 19797.2,14397.61 19797.2,14214.46 19922.26,14214.46 "/>
  <path id="_15" class="fil10" d="M20516.55 14464.86c0,79.76 -22.05,143.1 -66.3,190.04 -44.24,46.93 -105.33,70.46 -183.28,70.46 -77.82,0 -138.81,-23.53 -183.05,-70.46 -44.24,-46.94 -66.3,-110.28 -66.3,-190.04 0,-80.33 22.06,-143.9 66.3,-190.61 44.24,-46.71 105.23,-70.12 183.05,-70.12 77.51,0 138.49,23.41 182.95,70.12 44.46,46.71 66.63,110.28 66.63,190.61zm-165.41 126.81c12.07,-15.27 21.06,-33.17 26.93,-53.94 5.88,-20.77 8.77,-45.1 8.77,-73.21 0,-29.96 -3.34,-55.55 -10.1,-76.66 -6.65,-21 -15.52,-38.1 -26.27,-51.07 -11.09,-13.42 -23.85,-23.18 -38.25,-29.26 -14.42,-6.08 -29.39,-9.07 -44.91,-9.07 -15.85,0 -30.71,2.87 -44.68,8.72 -14.08,5.86 -26.83,15.5 -38.58,28.92 -10.87,12.63 -19.64,29.84 -26.5,51.99 -6.77,22.03 -10.21,47.62 -10.21,76.77 0,29.84 3.33,55.31 9.88,76.2 6.64,21 15.41,38.1 26.16,51.3 10.86,13.19 23.51,22.95 38.03,29.26 14.52,6.31 29.82,9.41 45.9,9.41 15.96,0 31.27,-3.22 45.79,-9.64 14.53,-6.31 27.17,-16.3 38.04,-29.72z"/>
  <path id="_16" class="fil11 str0" d="M12128.28 14367.32c0,-12.4 -2.44,-23.07 -7.32,-31.91 -4.99,-8.95 -13.42,-15.95 -25.39,-21 -8.32,-3.55 -17.96,-5.73 -29.05,-6.54 -11.08,-0.8 -24.06,-1.14 -38.8,-1.14l-44.46 0 0 133.57 37.8 0c19.63,0 36.04,-1.03 49.23,-2.98 13.3,-2.07 24.39,-6.54 33.38,-13.66 8.53,-6.88 14.74,-14.46 18.73,-22.83 3.89,-8.38 5.88,-19.51 5.88,-33.51zm195.58 347.71l-152.56 0 -131.61 -183.84 -56.43 0 0 183.84 -125.07 0 0 -500.57 209 0c28.61,0 53.11,1.72 73.62,5.05 20.62,3.33 39.8,10.67 57.77,21.8 18.18,11.25 32.7,25.71 43.35,43.5 10.75,17.78 16.07,40.16 16.07,67.02 0,36.95 -8.21,67.01 -24.72,90.31 -16.52,23.29 -40.14,42.69 -70.85,58.18l161.43 214.71z"/>
  <polygon id="_17" class="fil11 str0" points="12728.44,14715.03 12378.51,14715.03 12378.51,14214.46 12728.44,14214.46 12728.44,14311.55 12503.59,14311.55 12503.59,14397.61 12712.47,14397.61 12712.47,14494.7 12503.59,14494.7 12503.59,14617.95 12728.44,14617.95 "/>
  <polygon id="_18" class="fil11 str0" points="13339.91,14715.03 13214.85,14715.03 13214.85,14379.83 13125.59,14597.29 13039.99,14597.29 12950.75,14379.83 12950.75,14715.03 12832.99,14715.03 12832.99,14214.46 12977.91,14214.46 13086.23,14465.55 13194.11,14214.46 13339.91,14214.46 "/>
  <path id="_19" class="fil11 str0" d="M13933.86 14464.86c0,79.76 -22.06,143.1 -66.3,190.04 -44.24,46.93 -105.33,70.46 -183.28,70.46 -77.83,0 -138.81,-23.53 -183.05,-70.46 -44.24,-46.94 -66.3,-110.28 -66.3,-190.04 0,-80.33 22.06,-143.9 66.3,-190.61 44.24,-46.71 105.22,-70.12 183.05,-70.12 77.5,0 138.49,23.41 182.94,70.12 44.47,46.71 66.64,110.28 66.64,190.61zm-165.42 126.81c12.08,-15.27 21.06,-33.17 26.94,-53.94 5.87,-20.77 8.76,-45.1 8.76,-73.21 0,-29.96 -3.33,-55.55 -10.09,-76.66 -6.65,-21 -15.52,-38.1 -26.27,-51.07 -11.1,-13.42 -23.85,-23.18 -38.26,-29.26 -14.41,-6.08 -29.39,-9.07 -44.9,-9.07 -15.86,0 -30.72,2.87 -44.69,8.72 -14.08,5.86 -26.83,15.5 -38.58,28.92 -10.87,12.63 -19.63,29.84 -26.5,51.99 -6.76,22.03 -10.2,47.62 -10.2,76.77 0,29.84 3.32,55.31 9.87,76.2 6.65,21 15.41,38.1 26.17,51.3 10.86,13.19 23.5,22.95 38.02,29.26 14.53,6.31 29.83,9.41 45.91,9.41 15.96,0 31.26,-3.22 45.78,-9.64 14.53,-6.31 27.17,-16.3 38.04,-29.72z"/>
  <path id="_20" class="fil11 str0" d="M14245.97 14723.98c-36.14,-0.23 -69.29,-5.74 -99.34,-16.64 -30.05,-10.9 -55.88,-27.2 -77.51,-49 -21.73,-21.57 -38.58,-48.54 -50.56,-80.79 -12.08,-32.36 -18.06,-69.89 -18.06,-112.46 0,-39.71 5.75,-75.74 17.17,-108.1 11.54,-32.36 28.28,-60.02 50.12,-83.2 21.07,-22.15 47.13,-39.36 78.17,-51.53 31.15,-12.04 65.08,-18.13 102,-18.13 20.29,0 38.69,1.15 55.11,3.56 16.3,2.3 31.49,5.39 45.34,9.18 14.53,4.36 27.62,9.07 39.48,14.35 11.86,5.27 22.17,10.09 31.04,14.68l0 121.42 -14.3 0c-6.1,-5.4 -13.75,-11.71 -22.95,-19.05 -9.2,-7.35 -19.63,-14.58 -31.38,-21.69 -11.86,-7.12 -24.83,-13.08 -38.7,-18.02 -13.85,-4.93 -28.71,-7.34 -44.45,-7.34 -17.63,0 -34.26,2.87 -50.12,8.6 -15.85,5.63 -30.49,15.15 -43.91,28.35 -12.74,12.85 -23.17,29.72 -31.04,50.72 -7.88,21.12 -11.87,46.71 -11.87,76.66 0,31.44 4.33,57.61 12.86,78.72 8.54,21 19.3,37.64 32.38,49.69 13.2,12.4 27.94,21.12 44.13,26.4 16.3,5.27 32.38,7.91 48.12,7.91 15.19,0 30.27,-2.29 45.13,-7 14.74,-4.7 28.49,-11.13 41.13,-19.16 10.53,-6.54 20.4,-13.43 29.49,-20.77 9.1,-7.46 16.63,-13.77 22.51,-19.17l12.97 0 0 119.81c-12.75,5.74 -27.72,12.28 -44.9,19.28 -17.08,7.11 -35.48,12.51 -55.22,16.29 0,3.33 0.22,7.58 0.56,12.74 0.33,5.17 0.44,9.76 0.44,13.77 0,36.15 -10.76,64.04 -32.27,83.55 -21.5,19.5 -49.55,29.26 -84.26,29.26 -7.54,0 -18.52,-0.57 -32.93,-1.84 -14.3,-1.26 -26.39,-3.32 -36.15,-6.31l0 -67.59 7.43 0c5.22,2.41 12.86,5.05 22.84,7.69 9.88,2.64 19.4,4.02 28.5,4.02 17.41,0 30.49,-4.37 39.47,-13.2 8.98,-8.84 13.53,-22.15 13.53,-39.82l0 -15.84z"/>
  <path id="_21" class="fil11 str0" d="M14956.88 14715.03l-129.05 0 -33.59 -101.22 -177.74 0 -33.7 101.22 -126.18 0 178.41 -500.57 143.46 0 178.39 500.57zm-192.58 -192.79l-58.99 -177.99 -58.98 177.99 117.97 0zm74.17 -476.47c-2.11,37.87 -11.08,65.87 -26.83,84.12 -15.63,18.24 -37.58,27.42 -65.75,27.42 -10.08,0 -19.84,-2.06 -29.04,-6.31 -9.21,-4.13 -17.63,-8.61 -25.17,-13.31 -6.66,-4.25 -14.09,-8.61 -22.29,-13.08 -8.09,-4.36 -14.86,-6.54 -20.29,-6.54 -10.53,0 -17.63,3.55 -21.18,10.78 -3.54,7.23 -5.65,17.45 -6.31,30.53l-71.18 0c1.32,-33.97 10.31,-61.05 27.16,-81.25 16.74,-20.2 38.47,-30.3 65.08,-30.3 10.42,0 20.18,1.96 29.49,5.97 9.32,4.02 17.86,8.38 25.72,13.08 7.99,4.59 15.41,8.84 22.4,12.86 6.88,4.01 13.3,5.96 19.19,5.96 10.31,0 17.4,-3.55 21.39,-10.78 3.88,-7.23 5.99,-16.99 6.43,-29.15l71.18 0z"/>
  <path id="_22" class="fil11 str0" d="M15497.29 14464.86c0,79.76 -22.06,143.1 -66.3,190.04 -44.24,46.93 -105.33,70.46 -183.28,70.46 -77.82,0 -138.81,-23.53 -183.05,-70.46 -44.24,-46.94 -66.3,-110.28 -66.3,-190.04 0,-80.33 22.06,-143.9 66.3,-190.61 44.24,-46.71 105.23,-70.12 183.05,-70.12 77.51,0 138.49,23.41 182.94,70.12 44.47,46.71 66.64,110.28 66.64,190.61zm-165.42 126.81c12.08,-15.27 21.07,-33.17 26.94,-53.94 5.87,-20.77 8.76,-45.1 8.76,-73.21 0,-29.96 -3.33,-55.55 -10.09,-76.66 -6.65,-21 -15.52,-38.1 -26.27,-51.07 -11.1,-13.42 -23.85,-23.18 -38.25,-29.26 -14.42,-6.08 -29.4,-9.07 -44.91,-9.07 -15.86,0 -30.72,2.87 -44.69,8.72 -14.07,5.86 -26.83,15.5 -38.58,28.92 -10.87,12.63 -19.63,29.84 -26.5,51.99 -6.76,22.03 -10.2,47.62 -10.2,76.77 0,29.84 3.32,55.31 9.87,76.2 6.65,21 15.41,38.1 26.17,51.3 10.86,13.19 23.5,22.95 38.03,29.26 14.52,6.31 29.82,9.41 45.9,9.41 15.96,0 31.26,-3.22 45.78,-9.64 14.54,-6.31 27.17,-16.3 38.04,-29.72z"/>
  <path id="_23" class="fil11 str0" d="M16276.96 14465.2c0,46.71 -10.31,88.37 -30.82,125.32 -20.63,36.84 -46.57,65.07 -77.95,84.8 -23.62,14.81 -49.56,25.14 -77.72,30.99 -28.17,5.85 -61.42,8.72 -100.01,8.72l-170.53 0 0 -500.57 175.41 0c39.36,0 73.4,3.44 102.01,10.21 28.6,6.89 52.65,16.53 72.06,29.15 33.37,21 59.65,49.46 78.83,85.15 19.18,35.81 28.72,77.92 28.72,126.23zm-129.72 -1.14c0,-32.82 -5.77,-60.94 -17.3,-84.35 -11.53,-23.41 -29.71,-41.66 -54.78,-54.85 -12.63,-6.43 -25.6,-10.9 -38.91,-13.2 -13.19,-2.41 -33.15,-3.56 -59.87,-3.56l-31.38 0 0 312.6 31.38 0c29.49,0 51.11,-1.38 64.86,-4.25 13.86,-2.75 27.28,-7.8 40.46,-15.26 22.52,-13.31 39.14,-31.33 49.69,-53.82 10.53,-22.38 15.85,-50.26 15.85,-83.31z"/>
  <polygon id="_24" class="fil11 str0" points="16722.01,14715.03 16372.09,14715.03 16372.09,14214.46 16722.01,14214.46 16722.01,14311.55 16497.16,14311.55 16497.16,14397.61 16706.04,14397.61 16706.04,14494.7 16497.16,14494.7 16497.16,14617.95 16722.01,14617.95 "/>
  <polygon id="_25" class="fil11 str0" points="17403.89,14715.03 17053.97,14715.03 17053.97,14214.46 17403.89,14214.46 17403.89,14311.55 17179.04,14311.55 17179.04,14397.61 17387.92,14397.61 17387.92,14494.7 17179.04,14494.7 17179.04,14617.95 17403.89,14617.95 "/>
  <polygon id="_26" class="fil11 str0" points="17948.17,14715.03 17827.88,14715.03 17622.87,14371.45 17622.87,14715.03 17508.44,14715.03 17508.44,14214.46 17657.57,14214.46 17833.75,14501.24 17833.75,14214.46 17948.17,14214.46 "/>
  <polygon id="_27" class="fil11 str0" points="18450.2,14311.55 18299.19,14311.55 18299.19,14715.03 18174.13,14715.03 18174.13,14311.55 18023.12,14311.55 18023.12,14214.46 18450.2,14214.46 "/>
  <path id="_28" class="fil11 str0" d="M18948.25 14533.71c0,61.86 -18.18,109.25 -54.44,142.19 -36.37,32.93 -89.92,49.46 -160.55,49.46 -70.73,0 -124.17,-16.53 -160.43,-49.46 -36.26,-32.94 -54.33,-80.22 -54.33,-141.84l0 -319.6 125.06 0 0 312.02c0,34.78 6.99,60.6 21.07,77.7 14.08,16.98 36.92,25.47 68.63,25.47 31.16,0 53.88,-8.15 68.3,-24.56 14.41,-16.29 21.62,-42.57 21.62,-78.61l0 -312.02 125.07 0 0 319.25z"/>
  <polygon id="_29" class="fil11 str0" points="19413.92,14715.03 19065.32,14715.03 19065.32,14214.46 19190.39,14214.46 19190.39,14617.95 19413.92,14617.95 "/>
  <polygon id="_30" class="fil11 str0" points="19922.26,14715.03 19797.2,14715.03 19797.2,14494.7 19614.26,14494.7 19614.26,14715.03 19489.19,14715.03 19489.19,14214.46 19614.26,14214.46 19614.26,14397.61 19797.2,14397.61 19797.2,14214.46 19922.26,14214.46 "/>
  <path id="_31" class="fil11 str0" d="M20516.55 14464.86c0,79.76 -22.05,143.1 -66.3,190.04 -44.24,46.93 -105.33,70.46 -183.28,70.46 -77.82,0 -138.81,-23.53 -183.05,-70.46 -44.24,-46.94 -66.3,-110.28 -66.3,-190.04 0,-80.33 22.06,-143.9 66.3,-190.61 44.24,-46.71 105.23,-70.12 183.05,-70.12 77.51,0 138.49,23.41 182.95,70.12 44.46,46.71 66.63,110.28 66.63,190.61zm-165.41 126.81c12.07,-15.27 21.06,-33.17 26.93,-53.94 5.88,-20.77 8.77,-45.1 8.77,-73.21 0,-29.96 -3.34,-55.55 -10.1,-76.66 -6.65,-21 -15.52,-38.1 -26.27,-51.07 -11.09,-13.42 -23.85,-23.18 -38.25,-29.26 -14.42,-6.08 -29.39,-9.07 -44.91,-9.07 -15.85,0 -30.71,2.87 -44.68,8.72 -14.08,5.86 -26.83,15.5 -38.58,28.92 -10.87,12.63 -19.64,29.84 -26.5,51.99 -6.77,22.03 -10.21,47.62 -10.21,76.77 0,29.84 3.33,55.31 9.88,76.2 6.64,21 15.41,38.1 26.16,51.3 10.86,13.19 23.51,22.95 38.03,29.26 14.52,6.31 29.82,9.41 45.9,9.41 15.96,0 31.27,-3.22 45.79,-9.64 14.53,-6.31 27.17,-16.3 38.04,-29.72z"/>
  <g id="_2738734852240">
   <path class="fil0" d="M20984.71 15724.47c841.97,0 1524.51,682.54 1524.51,1524.5 0,841.97 -682.54,1524.51 -1524.51,1524.51 -841.96,0 -1524.5,-682.54 -1524.5,-1524.51 0,-841.96 682.54,-1524.5 1524.5,-1524.5zm-13.31 653.36c473.77,0 857.83,384.06 857.83,857.84 0,473.77 -384.06,857.83 -857.83,857.83 -473.78,0 -857.84,-384.06 -857.84,-857.83 0,-473.78 384.06,-857.84 857.84,-857.84z"/>
   <path class="fil0" d="M21021.66 16488.75c407.39,0 737.64,330.25 737.64,737.64 0,407.39 -330.25,737.65 -737.64,737.65 -407.39,0 -737.65,-330.26 -737.65,-737.65 0,-407.39 330.26,-737.64 737.65,-737.64zm0 94.25c355.33,0 643.39,288.06 643.39,643.39 0,355.34 -288.06,643.39 -643.39,643.39 -355.34,0 -643.4,-288.05 -643.4,-643.39 0,-355.33 288.06,-643.39 643.4,-643.39z"/>
   <path class="fil0" d="M21021.66 16783.16c244.79,0 443.23,198.44 443.23,443.23 0,244.79 -198.44,443.23 -443.23,443.23 -244.79,0 -443.23,-198.44 -443.23,-443.23 0,-244.79 198.44,-443.23 443.23,-443.23zm0 171.64c149.99,0 271.59,121.6 271.59,271.59 0,150 -121.6,271.59 -271.59,271.59 -150,0 -271.59,-121.59 -271.59,-271.59 0,-149.99 121.59,-271.59 271.59,-271.59z"/>
   <path class="fil0" d="M21342.47 16826.14c-15.78,27.5 85.53,119.27 120.05,139.81 69.22,-0.49 63.88,-50.98 5.33,-116.66 -25.4,-28.48 -95.36,-75.48 -125.38,-23.15z"/>
   <path class="fil0" d="M21556.09 17152.79c-31.51,3.5 -45.75,139.45 -41.94,179.44 41.27,55.57 78.87,21.45 97.29,-64.58 7.99,-37.32 4.62,-121.53 -55.35,-114.86z"/>
   <path class="fil0" d="M21444.93 17529.55c-28.39,-14.1 -113.91,92.55 -132.34,128.24 4.65,69.06 54.73,60.7 116.77,-1.69 26.9,-27.07 69.61,-99.72 15.57,-126.55z"/>
   <path class="fil0" d="M21135.72 17747.79c-8,-30.67 -144.59,-25.21 -183.61,-15.7 -49.06,48.83 -9.89,81.14 77.9,87 38.08,2.54 120.93,-12.91 105.71,-71.3z"/>
   <path class="fil0" d="M20708.7 17647.93c15.02,-27.92 -88.81,-116.84 -123.88,-136.42 -69.18,2.41 -62.45,52.74 -2.1,116.76 26.19,27.77 97.42,72.81 125.98,19.66z"/>
   <path class="fil0" d="M20503.1 17344.11c30.38,-9.09 20.05,-145.4 9.15,-184.06 -50.55,-47.28 -81.44,-6.98 -84.17,80.96 -1.18,38.14 17.22,120.39 75.02,103.1z"/>
   <path class="fil0" d="M20568.38 16956.68c29.37,11.93 106.66,-100.82 122.37,-137.79 -9.81,-68.52 -59.13,-56.44 -116.31,10.43 -24.81,29 -61.96,104.65 -6.06,127.36z"/>
   <path class="fil0" d="M20920.48 16729.73c10.26,30 146.06,14.39 184.27,2 45.29,-52.35 3.82,-81.65 -84.16,-80.97 -38.16,0.31 -119.63,21.88 -100.11,78.97z"/>
  </g>
  <g id="_2738734850896">
   <path class="fil0" d="M5428.89 15474.41c841.96,0 1524.5,682.54 1524.5,1524.51 0,841.96 -682.54,1524.5 -1524.5,1524.5 -841.97,0 -1524.51,-682.54 -1524.51,-1524.5 0,-841.97 682.54,-1524.51 1524.51,-1524.51zm-13.31 653.36c473.76,0 857.83,384.06 857.83,857.84 0,473.78 -384.07,857.84 -857.83,857.84 -473.78,0 -857.85,-384.06 -857.85,-857.84 0,-473.78 384.07,-857.84 857.85,-857.84z"/>
   <path class="fil0" d="M5465.84 16238.7c407.39,0 737.64,330.24 737.64,737.64 0,407.38 -330.25,737.64 -737.64,737.64 -407.39,0 -737.65,-330.26 -737.65,-737.64 0,-407.4 330.26,-737.64 737.65,-737.64zm0 94.24c355.33,0 643.39,288.06 643.39,643.4 0,355.33 -288.06,643.39 -643.39,643.39 -355.34,0 -643.4,-288.06 -643.4,-643.39 0,-355.34 288.06,-643.4 643.4,-643.4z"/>
   <path class="fil0" d="M5465.84 16533.11c244.79,0 443.22,198.44 443.22,443.23 0,244.79 -198.43,443.22 -443.22,443.22 -244.79,0 -443.23,-198.43 -443.23,-443.22 0,-244.79 198.44,-443.23 443.23,-443.23zm0 171.64c149.99,0 271.58,121.59 271.58,271.59 0,149.99 -121.59,271.58 -271.58,271.58 -150,0 -271.59,-121.59 -271.59,-271.58 0,-150 121.59,-271.59 271.59,-271.59z"/>
   <path class="fil0" d="M5786.64 16576.09c-15.78,27.49 85.54,119.26 120.05,139.81 69.22,-0.5 63.89,-50.99 5.34,-116.66 -25.4,-28.48 -95.36,-75.49 -125.39,-23.15z"/>
   <path class="fil0" d="M6000.27 16902.73c-31.51,3.5 -45.75,139.46 -41.95,179.44 41.27,55.58 78.88,21.46 97.3,-64.58 7.99,-37.32 4.61,-121.53 -55.35,-114.86z"/>
   <path class="fil0" d="M5889.11 17279.49c-28.4,-14.1 -113.91,92.55 -132.34,128.24 4.65,69.06 54.73,60.71 116.76,-1.69 26.91,-27.06 69.62,-99.72 15.58,-126.55z"/>
   <path class="fil0" d="M5579.89 17497.74c-7.99,-30.68 -144.58,-25.22 -183.61,-15.7 -49.06,48.83 -9.88,81.13 77.9,87 38.08,2.53 120.94,-12.92 105.71,-71.3z"/>
   <path class="fil0" d="M5152.88 17397.88c15.01,-27.92 -88.81,-116.85 -123.88,-136.43 -69.18,2.42 -62.45,52.74 -2.1,116.76 26.18,27.77 97.42,72.81 125.98,19.67z"/>
   <path class="fil0" d="M4947.28 17094.05c30.37,-9.08 20.05,-145.39 9.15,-184.05 -50.55,-47.29 -81.44,-6.99 -84.17,80.95 -1.18,38.15 17.22,120.39 75.02,103.1z"/>
   <path class="fil0" d="M5012.56 16706.62c29.37,11.94 106.66,-100.81 122.37,-137.78 -9.81,-68.53 -59.13,-56.44 -116.31,10.42 -24.81,29.01 -61.96,104.66 -6.06,127.36z"/>
   <path class="fil0" d="M5364.66 16479.67c10.26,30 146.06,14.39 184.27,2 45.29,-52.35 3.82,-81.65 -84.16,-80.96 -38.16,0.3 -119.64,21.88 -100.11,78.96z"/>
  </g>
  <rect class="fil0 str1" x="9096.98" y="15920.36" width="214.94" height="322.41"/>
  <rect class="fil0" x="12320.87" y="13395.2" width="1010.25" height="179.63"/>
  <rect class="fil0" x="14171.18" y="13405.39" width="1010.25" height="179.63"/>
  <rect class="fil0" x="15671.8" y="13408.78" width="1010.25" height="179.63"/>
  <rect class="fil0" x="17087.54" y="13405.39" width="1010.25" height="179.63"/>
  <path class="fil10 str1" d="M13120.43 12404.4c11.32,11.58 20.28,25.13 27,40.53 6.72,15.39 10.01,35.86 10.01,61.56 0,28.95 -4.82,55.93 -14.37,80.92 -9.55,25.14 -24.17,46.6 -43.98,64.53 -19.33,17.37 -42.09,30.65 -68.26,39.83 -26.17,9.17 -57.89,13.83 -95.26,13.83 -42.56,0 -79.11,-3.95 -109.64,-12 -30.54,-8.05 -55.41,-17.08 -74.51,-26.97l0 -135.57 13.44 0c19.92,14.41 43.62,26.97 71.21,37.57 27.47,10.59 52.7,15.81 75.57,15.81 13.32,0 27.94,-1.27 43.62,-3.95 15.68,-2.54 28.88,-8.33 39.73,-17.09 8.61,-6.92 15.33,-15.25 20.39,-24.99 5.08,-9.75 7.67,-23.87 7.67,-42.22 0,-17.94 -3.42,-31.78 -10.38,-41.52 -6.95,-9.74 -16.03,-16.66 -27.35,-20.9 -11.32,-4.38 -24.99,-6.78 -40.91,-7.2 -15.91,-0.42 -30.65,-0.57 -44.32,-0.57l-28.41 0 0 -110.14 29.59 0c18.03,0 34.07,-0.71 47.98,-2.12 13.91,-1.27 25.7,-4.52 35.48,-9.46 10.14,-5.23 17.8,-12.15 22.87,-20.76 5.07,-8.61 7.67,-21.32 7.67,-37.99 0,-12.42 -2.71,-22.31 -8.02,-29.93 -5.3,-7.49 -12.02,-13.42 -20.04,-17.94 -9.08,-4.94 -19.69,-8.19 -31.95,-9.88 -12.26,-1.56 -22.75,-2.4 -31.6,-2.4 -21.69,0 -45.27,4.37 -70.73,13.27 -25.35,8.9 -49.99,21.75 -73.81,38.41l-12.85 0 0 -133.87c18.87,-9.18 44.57,-17.93 77.11,-26.27 32.42,-8.47 65.43,-12.7 98.79,-12.7 32.55,0 60.95,3.39 85.35,10.17 24.42,6.77 44.57,15.81 60.49,27.11 18.86,13.55 33.01,29.93 42.2,49.28 9.2,19.21 13.8,41.94 13.8,67.78 0,34.31 -8.84,64.82 -26.65,91.79 -17.68,26.83 -41.14,44.06 -70.15,51.4l0 5.93c11.79,1.84 24.18,5.65 37.38,11.44 13.09,5.79 25.11,14.26 35.84,25.28zm542.79 -205.18l-232.49 493.67 -148.08 0 241.33 -498.19 -263.96 0 0 -117.78 403.2 0 0 122.3zm481.01 493.67l-343.08 0 0 -107.6 108.23 0 0 -325.35 -108.23 0 0 -100.83c16.51,0 32.43,-1.13 47.64,-3.53 15.09,-2.26 27.7,-6.35 37.84,-12.14 12.02,-6.92 20.99,-15.82 26.88,-26.83 6.01,-11.02 9.43,-24.86 10.37,-41.38l114.24 0 0 510.06 106.11 0 0 107.6zm535.48 0l-403.91 0 0 -101.67c30.89,-26.83 61.78,-55.21 92.67,-85.43 31.01,-30.08 55.76,-56.07 74.39,-77.95 27.82,-32.34 47.63,-60.44 59.42,-84.59 11.66,-24 17.56,-47.73 17.56,-71.31 0,-28.1 -7.54,-49.85 -22.63,-65.24 -15.1,-15.39 -36.79,-23.02 -65.08,-23.02 -21.1,0 -43.38,5.23 -66.73,15.67 -23.34,10.6 -45.03,24.02 -65.08,40.25l-11.08 0 0 -136.97c16.39,-8.48 40.44,-17.09 72.39,-25.56 31.83,-8.62 63.78,-12.85 95.84,-12.85 64.38,0 113.54,16.24 147.37,48.71 33.84,32.48 50.81,78.38 50.81,137.69 0,38.97 -8.13,75.97 -24.28,111.13 -16.27,35.02 -41.14,71.32 -74.51,108.59 -20.86,23.16 -41.97,44.49 -63.19,63.97 -21.11,19.49 -36.2,33.05 -45.16,40.82l231.2 0 0 117.76zm337.41 -214.36l-263.84 0 0 -119.46 263.84 0 0 119.46zm505.06 214.36l-403.9 0 0 -101.67c30.88,-26.83 61.77,-55.21 92.66,-85.43 31.01,-30.08 55.77,-56.07 74.39,-77.95 27.83,-32.34 47.63,-60.44 59.42,-84.59 11.67,-24 17.57,-47.73 17.57,-71.31 0,-28.1 -7.55,-49.85 -22.64,-65.24 -15.09,-15.39 -36.78,-23.02 -65.07,-23.02 -21.11,0 -43.39,5.23 -66.73,15.67 -23.35,10.6 -45.04,24.02 -65.08,40.25l-11.08 0 0 -136.97c16.38,-8.48 40.43,-17.09 72.39,-25.56 31.83,-8.62 63.77,-12.85 95.84,-12.85 64.37,0 113.53,16.24 147.37,48.71 33.83,32.48 50.81,78.38 50.81,137.69 0,38.97 -8.13,75.97 -24.28,111.13 -16.27,35.02 -41.15,71.32 -74.51,108.59 -20.87,23.16 -41.97,44.49 -63.2,63.97 -21.1,19.49 -36.19,33.05 -45.15,40.82l231.19 0 0 117.76zm510.02 -141.49l-70.03 0 0 143.19 -126.62 0 0 -143.19 -249 0 0 -116.78 240.75 -357.7 134.87 0 0 361.79 70.03 0 0 112.69zm-196.65 -112.69l0 -223.54 -149.96 223.54 149.96 0zm659.97 254.18l-343.07 0 0 -107.6 108.23 0 0 -325.35 -108.23 0 0 -100.83c16.5,0 32.42,-1.13 47.63,-3.53 15.09,-2.26 27.71,-6.35 37.84,-12.14 12.03,-6.92 20.99,-15.82 26.88,-26.83 6.02,-11.02 9.43,-24.86 10.38,-41.38l114.24 0 0 510.06 106.1 0 0 107.6zm534.77 -210.12c0,31.77 -4.83,61.57 -14.5,89.53 -9.66,27.82 -23.22,51.26 -40.79,70.32 -18.62,20.48 -40.2,36.01 -64.84,46.89 -24.52,10.73 -53.17,16.09 -86.18,16.09 -30.89,0 -59.07,-5.08 -84.42,-15.11 -25.46,-10.02 -47.38,-25.41 -65.54,-46.17 -20.99,-23.73 -37.02,-54.37 -47.99,-91.79 -11.08,-37.56 -16.62,-82.33 -16.62,-134.57 0,-53.95 5.19,-101.96 15.56,-143.9 10.38,-41.94 27.24,-79.08 50.7,-111.42 22.63,-30.78 51.88,-54.79 87.95,-71.88 35.96,-17.08 78.87,-25.7 128.62,-25.7 16.74,0 35.13,1.41 55.18,4.1 20.04,2.82 33.01,4.8 39.02,6.21l0 121.02 -13.09 0c-6.24,-3.53 -16.74,-7.48 -31.6,-12 -14.73,-4.38 -31.59,-6.64 -50.45,-6.64 -44.1,0 -78.52,12.99 -103.04,38.84 -24.64,25.84 -39.38,61.84 -44.45,108.02 17.68,-12.71 36.43,-23.02 56.12,-30.78 19.57,-7.91 40.91,-11.86 63.66,-11.86 20.04,0 38.55,2.82 55.77,8.33 17.09,5.5 33.01,14.26 47.75,26.4 19.09,16.1 34.42,37.56 45.98,64.68 11.43,26.97 17.2,60.86 17.2,101.39zm-157.15 92.92c7.19,-9.32 12.85,-20.48 17.09,-33.33 4.25,-12.71 6.37,-30.22 6.37,-52.25 0,-20.19 -2.35,-36.57 -7.19,-49.42 -4.83,-12.85 -11.55,-23.16 -20.04,-30.79 -8.25,-7.76 -18.04,-13.13 -29.36,-15.95 -11.2,-2.97 -22.87,-4.38 -34.78,-4.38 -10.14,0 -20.74,1.41 -31.83,4.1 -10.96,2.82 -21.1,6.21 -30.29,10.44 0,2.69 -0.12,7.21 -0.36,13.56 -0.23,6.36 -0.35,14.41 -0.35,24.01 0,33.89 2.82,61.85 8.49,83.74 5.54,22.02 13.08,38.69 22.51,50.27 6.49,8.61 14.03,14.82 22.76,18.92 8.84,3.95 18.27,5.93 28.29,5.93 7.66,0 16.04,-2.11 25.23,-6.21 9.2,-4.09 16.98,-10.31 23.46,-18.64z"/>
  <rect class="fil0 str1" x="11516.95" y="10775.65" width="662.74" height="161.21"/>
  <rect class="fil0 str1" x="17767.63" y="10802.77" width="662.74" height="161.21"/>
  <rect class="fil0 str1" x="10606.34" y="10188.58" width="662.74" height="161.21"/>
  <rect class="fil0 str1" x="12946.4" y="10186.05" width="662.74" height="161.21"/>
  <rect class="fil0 str1" x="16842.34" y="10179.17" width="662.74" height="161.21"/>
  <rect class="fil0 str1" x="14859.12" y="10179.14" width="662.74" height="161.21"/>
  <rect class="fil0 str1" x="18685.7" y="10183.09" width="662.74" height="161.21"/>
 </g>
</svg>
