<?xml version="1.0" encoding="UTF-8"?>
<!DOCTYPE svg PUBLIC "-//W3C//DTD SVG 1.1//EN" "http://www.w3.org/Graphics/SVG/1.1/DTD/svg11.dtd">
<!-- Creator: CorelDRAW -->
<svg xmlns="http://www.w3.org/2000/svg" xml:space="preserve" width="270.933mm" height="270.933mm" version="1.1" style="shape-rendering:geometricPrecision; text-rendering:geometricPrecision; image-rendering:optimizeQuality; fill-rule:evenodd; clip-rule:evenodd"
viewBox="0 0 27093.32 27093.32"
 xmlns:xlink="http://www.w3.org/1999/xlink"
 xmlns:xodm="http://www.corel.com/coreldraw/odm/2003">
 <defs>
  <style type="text/css">
   <![CDATA[
    .fil0 {fill:#3A4158}
    .fil4 {fill:#FBFBFC}
    .fil5 {fill:#FCFBFD}
    .fil7 {fill:#FCFCFB}
    .fil3 {fill:#FDFDFD}
    .fil2 {fill:#FDFDFE}
    .fil6 {fill:#FEFEFE}
    .fil1 {fill:white}
   ]]>
  </style>
 </defs>
 <g id="Camada_x0020_1">
  <metadata id="CorelCorpID_0Corel-Layer"/>
  <g>
   <path class="fil0" d="M3825.49 17037.57l1817.7 4.07c8.77,59.06 13.07,131.95 -2.55,193.22l-1819.07 -2.98 3.92 -194.31zm17093.63 124.2c-0.15,-130.34 -12.24,-117.51 43.02,-124.83 87.3,-11.56 1565.12,3.79 1706.44,7.37 6.96,53.3 11.59,143.29 -6.7,180.47 -24.14,22.65 -1489.94,10.25 -1516.18,10.25 -242.01,0 -226.47,18.12 -226.58,-73.26zm-2341.68 -119.97c231.07,-27.87 612.42,-5.46 859.23,-5.31 140.23,0.07 768.89,-8.08 856.86,7.35 9.25,54.7 11.01,139.37 -4.34,182.71 -45.24,16.48 -1574,20.37 -1715.13,5.13l3.38 -189.88zm-622.17 189.15c-107.93,13.16 -1274.63,3.96 -1488.21,4.01 -290.01,0.07 -301.58,31.44 -303.57,-71.89 -0.75,-38.87 -1.64,-79.53 5.7,-117.26 59.69,-19.21 1637.51,-18.1 1792.33,-4.5l-6.25 189.64zm-3948.74 3.92c-308.31,-0.01 -313.43,31.81 -312.5,-71.93 0.34,-37.68 0.18,-77.59 5.46,-114.34 72.94,-31.43 787.14,-12.57 925.2,-12.08l902.95 12.74c13.81,-22.21 27.16,123.45 7.16,172.78 -30.99,17.88 -15.31,10.61 -60.81,12.87l-1467.46 -0.04zm-2762.75 -13.4c-12.06,-24.08 -26.03,-154.39 4.94,-176.05 27.18,-19.02 1598.06,-8.4 1816.99,-5.07l-7.25 192.04c-237.38,12.03 -961.03,2.96 -1148.83,2.84 -122.92,-0.09 -617.26,15.85 -665.85,-13.76zm-661.97 5.14c-2.29,0.69 -6.47,2.61 -9.39,3.35 -7.29,1.85 -13.04,3.46 -20.62,4.53l-1672.52 0.14c-14.72,0.09 -106.03,3.35 -111.72,-10.62 -1.44,-3.53 -5.65,-2.45 -8.07,-4.3 -14.4,-24.47 -26.61,-153.85 4.09,-175.13 22.59,-15.66 153.05,-7.97 188.56,-7.99 496.58,-0.04 1200.13,-13.16 1646.01,9.84l-7.23 176.49c-2.86,1.61 -6.85,3.03 -9.11,3.69zm-4316.52 -182.32c89.73,-22.02 1800.95,-13.25 1842.15,4.27 10.68,79.23 22.8,167.32 -30.64,182.8 -28.18,8.17 10.63,0.04 -21.15,4.1l-182.26 -0.66c-286.4,-1.07 -1522.53,14.83 -1604.11,-6.67 -17,-41.57 -14.48,-127.78 -3.99,-183.84zm-2815.07 -19.94c97.53,-26.64 209.21,-35.97 227.96,78.64 13.23,80.8 -4.95,212.63 -96.04,226.91 -139.45,21.86 -188,-8.51 -222.92,-102.39 -12.48,-33.55 -23.81,-103.68 -10.11,-142.67 15.79,-44.96 45.29,-45.25 101.11,-60.49zm17248.15 -28.22c-48.69,14.01 -167.48,22.92 -183.5,-29.37l-2.8 -5077.55c0.65,-242.19 -16.7,-1660.34 7.41,-1771.32l187.67 4.08c27.1,96.79 7.32,708.32 7.58,858.18 -1.03,535.65 -0.73,5992.32 -16.36,6015.98zm-9679.37 -8.51c-33.4,30.89 -162.62,25.19 -176.85,-20.71l-2.73 -5077.7c-0.02,-228.97 -16.52,-1667.49 7.77,-1765.47 57.63,-12.39 129.17,-17.12 185.51,0.06 27.53,92.39 7.62,709.58 8.36,856.35 1.45,286.77 -0.35,573.78 0,860.58 0.7,573.57 2.53,1147.63 0.09,1721.15l-0.2 3236.27c0.35,95.83 17.52,156.03 -21.95,189.47zm-7587.15 -6674.12c0.12,-39.89 -1.75,-83.57 -0.83,-122.67 0.68,-29.07 -28.46,-100.66 152.78,-75.34 47.54,6.64 50.71,12.57 55.34,63.2l-2.43 3092.3c-1.52,1225.23 12.08,2511.35 -5.1,3726.37l-195.34 -5.31 -4.42 -6678.55zm19460.66 -194.25c235.9,-10.39 189.91,-44.32 189.58,291.22l-0.11 2315.08c-3.1,1414.3 11.88,2864.3 -4.29,4274.15l-173.37 1.25c-32.74,-61.69 -19.77,-162.24 -19.7,-251.28 2.44,-2161.39 -9.36,-4337.64 -2,-6496.85l9.89 -133.57zm-4702.62 363.95c0.25,-398.8 -30.71,-373.72 133,-369.37 93.29,2.48 73.47,14.42 71.8,187.55 -14.22,1472.28 0.64,2981.88 -2.56,4460.47 -1.49,690.08 17.02,1570.4 -6.93,2234.05 -246.33,33.02 -195.51,-31.96 -195.46,-112.9l0.15 -6399.8zm-2429.02 -72.73c-0.19,-289.13 -26,-292.64 87.22,-295.94 92.11,-2.69 120.71,-14.96 122.09,76.57 0.91,59.74 -0.41,122.77 -0.44,183.01 -0.36,786.51 16.64,6509.93 -8.7,6622.04 -230.08,35.22 -199.89,-28.23 -200.04,-101.03l-0.13 -6484.65zm-7218.99 6585.17c-248.67,39.88 -200.63,-24.25 -200.3,-233.85l0.2 -1333.3c0.55,-589.86 -0.88,-1179.76 -0.21,-1769.63 0.4,-357.23 -15.76,-3462.9 10.16,-3533.67 54.54,-15.86 128.61,-16.35 183.12,-0.43 36.84,108.67 11.7,1479.21 12.02,1715.97l-0.2 4302.9c-0.35,137.72 9.16,771.35 -4.79,852.01zm-2682.63 -6670.02c0.04,-207.72 -24.74,-207.64 73.48,-211.41 162.06,-6.22 129.72,11.9 129.92,162.93l-1.32 6217.99c0.2,88.42 21.07,480.08 -26.89,499.79l-28.33 10.25c-194.58,38.61 -146.1,-85.98 -146.44,-243.38l-0.42 -6436.17zm7437.37 6661.26c-28.54,-108.92 -9.14,-698.01 -9.14,-855.37l-0.01 -4302.9c0.2,-245.77 -16.36,-1586 7.22,-1711.11l189.23 3.93c28.4,111.6 8.09,693.24 8.15,858.72l-3.48 5981.2c-21.01,64.65 -140.4,47.43 -191.97,25.53zm10244.94 -1146.27c-0.89,-254.66 -33.23,-222.58 222.24,-222.63l448.47 -1.1c223.01,0.23 245.64,-26.72 246.12,101.77 0.16,42.6 16.41,200.27 -21.43,212.85l-30.89 9.11c-82.29,13.64 -809.99,5.35 -855.74,-10.23l-8.77 -89.77zm-20805.28 -5102.88c0.62,-313.3 -44.99,-248.22 79.18,-391.49 28.81,-33.25 41.9,-61.42 84.23,-68.99l-1.65 1163.49c0.35,98.27 16.19,430.24 -23.42,479.91 -26.18,32.81 -107.03,101.93 -138.74,117.06l0.4 -1299.98zm-344.56 23.58c15.63,1225.27 -2.19,2458.84 -0.4,3685.4l0.35 2763.82c0.43,335.64 387.39,621.02 863.64,801.4 327.07,123.87 553.87,132.72 931.46,142.47 1329.65,34.36 3559.4,1.62 3844.19,2.57 4043.17,13.6 8087.91,-4.28 12132.95,0.17 292.13,1.12 1408.86,34.73 2036.8,11.14 340.51,-12.8 2916.04,-471.74 3003.58,-791.64 30.4,-111.06 -19.77,-359.36 9.53,-461.76 270.22,-45.45 255.22,116.92 256.58,-383.39 0.19,-68.26 8.17,-255.98 -2.77,-311.36 -20.39,-103.22 -152.55,-45.39 -257.51,-67.96l-1.23 -4802.98c91.26,-25.26 217.05,25.21 252.92,-64.26 15.14,-37.77 17.84,-578.35 5.14,-627.32 -25.04,-96.54 -158.98,-46.42 -257.76,-67.98 -5.37,-130.15 2.54,-266.53 0.81,-397.7 -1.63,-123.68 -21.1,-87.88 64.41,-125.44 59.07,-25.96 71.9,-68.64 72.64,-140.32 4.29,-415.53 -16.59,-394.25 -419.65,-391.64 -1603.82,10.37 -3208.14,1.96 -4811.97,0.9 -2137.31,-1.41 -4274.61,-0.73 -6411.92,-0.37l-9611.82 -0.01c-266.64,-0.33 -533.36,0.87 -799.98,-0.59 -557.27,-3.05 -364.83,32.41 -781.17,422.06 -40.55,37.95 -61.98,61.87 -95.26,98.84 -36.83,40.91 -66.45,64.63 -101.6,104.64 -85.45,97.28 -60.58,188.06 -61.51,335.33 -0.39,61.77 -11.28,132.15 18.07,185.04 29.3,52.81 76.61,53.18 121.48,80.94z"/>
   <path id="_1" class="fil1" d="M3825.49 17037.57l1817.7 4.07c8.77,59.06 13.07,131.95 -2.55,193.22l-1819.07 -2.98 3.92 -194.31zm18836.39 187.21c-24.14,22.65 -1489.94,10.25 -1516.18,10.25 -242.01,0 -226.47,18.12 -226.58,-73.26 -0.15,-130.34 -12.24,-117.51 43.02,-124.83 87.3,-11.56 1565.12,3.79 1706.44,7.37 6.96,53.3 11.59,143.29 -6.7,180.47zm-2368.35 -180.94c9.25,54.7 11.01,139.37 -4.34,182.71 -45.24,16.48 -1574,20.37 -1715.13,5.13l3.38 -189.88c231.07,-27.87 612.42,-5.46 859.23,-5.31 140.23,0.07 768.89,-8.08 856.86,7.35zm-2338.26 187.11c-107.93,13.16 -1274.63,3.96 -1488.21,4.01 -290.01,0.07 -301.58,31.44 -303.57,-71.89 -0.75,-38.87 -1.64,-79.53 5.7,-117.26 59.69,-19.21 1637.51,-18.1 1792.33,-4.5l-6.25 189.64zm-4255.78 -182.35c72.94,-31.43 787.14,-12.57 925.2,-12.08l902.95 12.74c13.81,-22.21 27.16,123.45 7.16,172.78 -30.99,17.88 -15.31,10.61 -60.81,12.87l-1467.46 -0.04c-308.31,-0.01 -313.43,31.81 -312.5,-71.93 0.34,-37.68 0.18,-77.59 5.46,-114.34zm-2455.71 172.87c-12.06,-24.08 -26.03,-154.39 4.94,-176.05 27.18,-19.02 1598.06,-8.4 1816.99,-5.07l-7.25 192.04c-237.38,12.03 -961.03,2.96 -1148.83,2.84 -122.92,-0.09 -617.26,15.85 -665.85,-13.76zm-2476.22 2.54c-1.44,-3.53 -5.65,-2.45 -8.07,-4.3 -14.4,-24.47 -26.61,-153.85 4.09,-175.13 22.59,-15.66 153.05,-7.97 188.56,-7.99 496.58,-0.04 1200.13,-13.16 1646.01,9.84l-7.23 176.49c-2.86,1.61 -6.85,3.03 -9.11,3.69 -2.29,0.69 -6.47,2.61 -9.39,3.35 -7.29,1.85 -13.04,3.46 -20.62,4.53l-1672.52 0.14c-14.72,0.09 -106.03,3.35 -111.72,-10.62zm-2502.27 -179.72c89.73,-22.02 1800.95,-13.25 1842.15,4.27 10.68,79.23 22.8,167.32 -30.64,182.8 -4.79,1.39 -7.64,2.31 -9.24,2.89 -1.73,0.05 -5.29,0.36 -11.91,1.21l-182.26 -0.66c-286.4,-1.07 -1522.53,14.83 -1604.11,-6.67 -17,-41.57 -14.48,-127.78 -3.99,-183.84zm-2815.07 -19.94c97.53,-26.64 209.21,-35.97 227.96,78.64 13.23,80.8 -4.95,212.63 -96.04,226.91 -139.45,21.86 -188,-8.51 -222.92,-102.39 -12.48,-33.55 -23.81,-103.68 -10.11,-142.67 15.79,-44.96 45.29,-45.25 101.11,-60.49zm17248.15 -28.22c-48.69,14.01 -167.48,22.92 -183.5,-29.37l-2.8 -5077.55c0.65,-242.19 -16.7,-1660.34 7.41,-1771.32l187.67 4.08c27.1,96.79 7.32,708.32 7.58,858.18 -1.03,535.65 -0.73,5992.32 -16.36,6015.98zm-9679.37 -8.51c-33.4,30.89 -162.62,25.19 -176.85,-20.71l-2.73 -5077.7c-0.02,-228.97 -16.52,-1667.49 7.77,-1765.47 57.63,-12.39 129.17,-17.12 185.51,0.06 27.53,92.39 7.62,709.58 8.36,856.35 1.45,286.77 -0.35,573.78 0,860.58 0.7,573.57 2.53,1147.63 0.09,1721.15l-0.2 3236.27c0.35,95.83 17.52,156.03 -21.95,189.47zm-7587.15 -6674.12c0.12,-39.89 -1.75,-83.57 -0.83,-122.67 0.68,-29.07 -28.46,-100.66 152.78,-75.34 47.54,6.64 50.71,12.57 55.34,63.2l-2.43 3092.3c-1.52,1225.23 12.08,2511.35 -5.1,3726.37l-195.34 -5.31 -4.42 -6678.55zm19460.66 -194.25c235.9,-10.39 189.91,-44.32 189.58,291.22l-0.11 2315.08c-3.1,1414.3 11.88,2864.3 -4.29,4274.15l-173.37 1.25c-32.74,-61.69 -19.77,-162.24 -19.7,-251.28 2.44,-2161.39 -9.36,-4337.64 -2,-6496.85l9.89 -133.57zm-4507.31 6876.65c-246.33,33.02 -195.51,-31.96 -195.46,-112.9l0.15 -6399.8c0.25,-398.8 -30.71,-373.72 133,-369.37 93.29,2.48 73.47,14.42 71.8,187.55 -14.22,1472.28 0.64,2981.88 -2.56,4460.47 -1.49,690.08 17.02,1570.4 -6.93,2234.05zm-2624.33 -6585.43c-0.19,-289.13 -26,-292.64 87.22,-295.94 92.11,-2.69 120.71,-14.96 122.09,76.57 0.91,59.74 -0.41,122.77 -0.44,183.01 -0.36,786.51 16.64,6509.93 -8.7,6622.04 -230.08,35.22 -199.89,-28.23 -200.04,-101.03l-0.13 -6484.65zm-7218.99 6585.17c-248.67,39.88 -200.63,-24.25 -200.3,-233.85l0.2 -1333.3c0.55,-589.86 -0.88,-1179.76 -0.21,-1769.63 0.4,-357.23 -15.76,-3462.9 10.16,-3533.67 54.54,-15.86 128.61,-16.35 183.12,-0.43 36.84,108.67 11.7,1479.21 12.02,1715.97l-0.2 4302.9c-0.35,137.72 9.16,771.35 -4.79,852.01zm-2682.63 -6670.02c0.04,-207.72 -24.74,-207.64 73.48,-211.41 162.06,-6.22 129.72,11.9 129.92,162.93l-1.32 6217.99c0.2,88.42 21.07,480.08 -26.89,499.79l-28.33 10.25c-194.58,38.61 -146.1,-85.98 -146.44,-243.38l-0.42 -6436.17zm7437.37 6661.26c-28.54,-108.92 -9.14,-698.01 -9.14,-855.37l-0.01 -4302.9c0.2,-245.77 -16.36,-1586 7.22,-1711.11l189.23 3.93c28.4,111.6 8.09,693.24 8.15,858.72l-3.48 5981.2c-21.01,64.65 -140.4,47.43 -191.97,25.53zm10244.94 -1146.27c-0.89,-254.66 -33.23,-222.58 222.24,-222.63l448.47 -1.1c223.01,0.23 245.64,-26.72 246.12,101.77 0.16,42.6 16.41,200.27 -21.43,212.85l-30.89 9.11c-82.29,13.64 -809.99,5.35 -855.74,-10.23l-8.77 -89.77zm-20805.28 -5102.88c0.62,-313.3 -44.99,-248.22 79.18,-391.49 28.81,-33.25 41.9,-61.42 84.23,-68.99l-1.65 1163.49c0.35,98.27 16.19,430.24 -23.42,479.91 -26.18,32.81 -107.03,101.93 -138.74,117.06l0.4 -1299.98zm17427.63 7419.41c292.13,1.12 1408.86,34.73 2036.8,11.14 340.51,-12.8 2916.04,-471.74 3003.58,-791.64 30.4,-111.06 -19.77,-359.36 9.53,-461.76 270.22,-45.45 255.22,116.92 256.58,-383.39 0.19,-68.26 8.17,-255.98 -2.77,-311.36 -20.39,-103.22 -152.55,-45.39 -257.51,-67.96l-1.23 -4802.98c91.26,-25.26 217.05,25.21 252.92,-64.26 15.14,-37.77 17.84,-578.35 5.14,-627.32 -25.04,-96.54 -158.98,-46.42 -257.76,-67.98 -5.37,-130.15 2.54,-266.53 0.81,-397.7 -1.63,-123.68 -21.1,-87.88 64.41,-125.44 59.07,-25.96 71.9,-68.64 72.64,-140.32 4.29,-415.53 -16.59,-394.25 -419.65,-391.64 -1603.82,10.37 -3208.14,1.96 -4811.97,0.9 -2137.31,-1.41 -4274.61,-0.73 -6411.92,-0.37l-9611.82 -0.01c-266.64,-0.33 -533.36,0.87 -799.98,-0.59 -557.27,-3.05 -364.83,32.41 -781.17,422.06 -40.55,37.95 -61.98,61.87 -95.26,98.84 -36.83,40.91 -66.45,64.63 -101.6,104.64 -85.45,97.28 -60.58,188.06 -61.51,335.33 -0.39,61.77 -11.28,132.15 18.07,185.04 29.3,52.81 76.61,53.18 121.48,80.94 15.63,1225.27 -2.19,2458.84 -0.4,3685.4l0.35 2763.82c0.43,335.64 387.39,621.02 863.64,801.4 327.07,123.87 553.87,132.72 931.46,142.47 1329.65,34.36 3559.4,1.62 3844.19,2.57 4043.17,13.6 8087.91,-4.28 12132.95,0.17zm-18190.9 -5073.7c3.09,-698.2 6.19,-1396.84 -0.48,-2093.64 -23.86,-27.92 -47.52,-61.97 -71.05,-104.38 -80.96,-145.91 -76.45,-259.12 -72.11,-367.9 0.57,-14.52 1.09,-18.54 1.12,-23.84 0.11,-18.28 -0.7,-44.42 -1.44,-68.68 -6.12,-197.55 -10.57,-340.51 167.13,-542.81 31.65,-36.02 53.2,-57.11 75.06,-78.48l0.02 0.02c7.78,-7.62 16.03,-15.8 29.83,-31.14l1.55 -1.72c32.55,-36.17 54.08,-60.08 120.17,-121.93 98.99,-92.65 159.31,-164.28 203.92,-217.27 243.33,-289.01 271.25,-322.14 866.63,-318.89 169.03,0.92 337.65,0.77 506.21,0.64 97.37,-0.08 194.77,-0.16 292.12,-0.05l9611.82 0.01 851.38 -0.15c1853.5,-0.34 3707.03,-0.69 5560.54,0.52 451.1,0.29 902.27,1.19 1353.42,2.06 1152.21,2.24 2304.58,4.48 3456.9,-2.96l54.12 -0.46c42.56,-0.38 80.46,-0.73 115.79,-0.37 642.97,6.63 680.57,91.13 673.07,817.46 -0.96,93.27 -13.57,175.77 -54.14,262.58 -7.94,17.02 -16.49,33.34 -25.68,48.99 79.16,53.22 144.01,146.9 186.49,310.73 15.37,59.23 22.46,261.24 21,440.51 -1.5,183.89 -15.38,381.66 -42.68,449.74 -61,152.17 -137.3,232.8 -223.06,275.25l1.04 4044.69c115.21,43.33 205.21,145.48 250.99,377.13 15.95,80.76 12.81,227.28 10.54,332.64 -0.6,28.09 -1.13,52.48 -1.15,59.75l-0.12 72.81c-0.3,267.66 -0.42,379.9 -91.83,516.48 -57.37,85.74 -109.47,136.83 -163.45,166.97 -0.95,66.37 -7.36,133.05 -25.6,199.68 -81.28,297.07 -590.25,525.1 -1213.22,689.28 -828.67,218.4 -1955.09,404.72 -2182.27,413.25 -471.51,17.71 -1211.83,3.71 -1685.22,-5.23 -165.77,-3.13 -298.63,-5.66 -366.46,-5.91 -1678.67,-1.84 -3357.32,0.16 -5035.79,2.15 -2366.08,2.81 -4731.9,5.63 -7097.16,-2.32 -59.02,-0.2 -210.71,1.17 -424.17,3.08 -780.91,7 -2383.81,21.38 -3429.94,-5.65 -202.45,-5.22 -364.94,-10.27 -529.33,-31.75 -177.7,-23.2 -345.68,-63.19 -541.04,-137.18 -300.89,-113.97 -577.18,-268.06 -777.11,-453.56 -222.87,-206.82 -359.02,-455.78 -359.38,-743.06l-0.35 -2763.82c-0.66,-454.41 1.35,-908.77 3.37,-1363.27z"/>
  </g>
  <path class="fil2" d="M14180.25 -19623.2c-650.4,84.56 -483.63,688.64 -528.24,1095.51 -55.27,503.98 26.57,182.34 -154.69,657.25 -214.26,561.38 -452.35,1298.86 -545.73,1890.22 -40.61,257.23 -50.74,517.44 152.58,628.82 171.02,93.67 324.62,60.74 517.28,24.19 28.2,-5.35 58.09,-11 90.34,-18.65 20.27,-4.8 24.18,-4.91 42.28,-11.39 55.76,-19.98 14.4,-3.05 37.71,-17.94 19.6,-93.39 5.59,-217.84 11.99,-321.81 7.97,-129.66 44.84,-144.69 47.62,-298.23 4.37,-240.52 87.31,-396.69 94.07,-600.32 -223.69,-229.78 -174.35,-198.97 -159.87,-634.26 17.8,-534.79 87.35,-1020.07 112.34,-1556.54 16.87,-362.22 -19.23,-477.65 264.15,-587.85 33.92,-106.17 -11.12,-122.66 80.57,-228.25 96.84,2.65 235.84,27.45 293.35,65.83l-1.04 159.75c431.37,72.32 487.8,40.86 486.26,523.54 -1.47,461.71 -83.58,1394.03 -114.8,1901.85 -31.23,507.84 -327.48,352.47 -620.15,381.79l-66.96 1108.73c131.35,6.42 1164.2,-300.6 1362.45,-359.27 1153.99,-341.56 1780.63,-428.29 2994.94,-517.88 242.62,-17.9 602.8,28.97 725.39,-154.47 104.61,-156.53 61.54,-603.57 61.61,-826.16 0.17,-582.03 -1.52,-1164.26 0.29,-1746.25 0.63,-204.83 36.85,-517.9 -264.62,-623.33 -124.09,-43.39 -2394.45,-19.64 -2634.22,-19.71 -538.05,-0.17 -1207.94,-41.9 -1710.39,58.34 51.1,-132.3 225.27,-159.13 65.55,-416.04 -55.25,-88.86 -77.96,-44.64 -108.1,-136.63 186.98,-111.47 196.7,-142.21 480.36,-207.15 333.5,-76.36 2941.78,-38.75 3477.44,-40.49 117.58,-0.38 235.26,-1.04 352.83,0.44 125.79,1.58 246.19,20.05 249.45,-115.15 5.11,-211.81 -281.35,-152.42 -549.36,-153.34 -940.69,-3.22 -1881.54,1.43 -2822.22,-0.64 -499.47,-1.1 -813.81,-24.29 -1196.42,210.31 -271.55,166.5 -546.37,532.7 -524.04,885.18z"/>
  <path class="fil3" d="M13009.71 -14095.61c-154.38,66.97 -110.71,252.5 -110.48,445.76l0.93 1129.08c1.28,205.04 40.23,309.53 247.92,322.53 279.12,17.48 756.38,-31.75 1012.03,-105.35 727.92,-209.56 1140.7,-776.4 1301.53,-1500.97 48.71,-219.45 -10.33,-306.3 -230.76,-306.39 -261.18,-0.1 -2140.31,-19.74 -2221.17,15.34z"/>
  <path class="fil2" d="M15760.87 10410.47l0.13 6484.65c0.15,72.8 -30.04,136.25 200.04,101.03 25.34,-112.11 8.34,-5835.53 8.7,-6622.04 0.03,-60.24 1.35,-123.27 0.44,-183.01 -1.38,-91.53 -29.98,-79.26 -122.09,-76.57 -113.22,3.3 -87.41,6.81 -87.22,295.94z"/>
  <path class="fil2" d="M8541.88 16995.64c13.95,-80.66 4.44,-714.29 4.79,-852.01l0.2 -4302.9c-0.32,-236.76 24.82,-1607.3 -12.02,-1715.97 -54.51,-15.92 -128.58,-15.43 -183.12,0.43 -25.92,70.77 -9.76,3176.44 -10.16,3533.67 -0.67,589.87 0.76,1179.77 0.21,1769.63l-0.2 1333.3c-0.33,209.6 -48.37,273.73 200.3,233.85z"/>
  <path class="fil2" d="M13296.62 16986.88c51.57,21.9 170.96,39.12 191.97,-25.53l3.48 -5981.2c-0.06,-165.48 20.25,-747.12 -8.15,-858.72l-189.23 -3.93c-23.58,125.11 -7.02,1465.34 -7.22,1711.11l0.01 4302.9c0,157.36 -19.4,746.45 9.14,855.37z"/>
  <path class="fil4" d="M5859.25 10325.62l0.42 6436.17c0.34,157.4 -48.14,281.99 146.44,243.38l28.33 -10.25c47.96,-19.71 27.09,-411.37 26.89,-499.79l1.32 -6217.99c-0.2,-151.03 32.14,-169.15 -129.92,-162.93 -98.22,3.77 -73.44,3.69 -73.48,211.41z"/>
  <path class="fil5" d="M18189.89 10483.2l-0.15 6399.8c-0.05,80.94 -50.87,145.92 195.46,112.9 23.95,-663.65 5.44,-1543.97 6.93,-2234.05 3.2,-1478.59 -11.66,-2988.19 2.56,-4460.47 1.67,-173.13 21.49,-185.07 -71.8,-187.55 -163.71,-4.35 -132.75,-29.43 -133,369.37z"/>
  <path class="fil6" d="M11019 16987.62c39.47,-33.44 22.3,-93.64 21.95,-189.47l0.2 -3236.27c2.44,-573.52 0.61,-1147.58 -0.09,-1721.15 -0.35,-286.8 1.45,-573.81 0,-860.58 -0.74,-146.77 19.17,-763.96 -8.36,-856.35 -56.34,-17.18 -127.88,-12.45 -185.51,-0.06 -24.29,97.98 -7.79,1536.5 -7.77,1765.47l2.73 5077.7c14.23,45.9 143.45,51.6 176.85,20.71z"/>
  <path class="fil5" d="M22882.62 10252.82c-7.36,2159.21 4.44,4335.46 2,6496.85 -0.07,89.04 -13.04,189.59 19.7,251.28l173.37 -1.25c16.17,-1409.85 1.19,-2859.85 4.29,-4274.15l0.11 -2315.08c0.33,-335.54 46.32,-301.61 -189.58,-291.22l-9.89 133.57z"/>
  <path class="fil2" d="M20698.37 16996.13c1.97,-2.97 4.2,-11.23 4.83,-9.54l11.53 -6006.44c-0.26,-149.86 19.52,-761.39 -7.58,-858.18l-187.67 -4.08c-24.11,110.98 -6.76,1529.13 -7.41,1771.32l2.8 5077.55c16.02,52.29 134.81,43.38 183.5,29.37z"/>
  <path class="fil2" d="M11587.24 -11105.44c21.21,-82.99 25.84,-2803.79 1.91,-2907.4 -249.6,-27.8 -282.1,404.74 -283.5,573.96 -2.41,293.38 -28.64,1997.27 30.64,2165.94 62.78,178.64 187.18,194.02 250.95,167.5z"/>
  <path class="fil7" d="M6269.28 17228.13c81.58,21.5 1317.71,5.6 1604.11,6.67l182.26 0.66c31.78,-4.06 -7.03,4.07 21.15,-4.1 53.44,-15.48 41.32,-103.57 30.64,-182.8 -41.2,-17.52 -1752.42,-26.29 -1842.15,-4.27 -10.49,56.06 -13.01,142.27 3.99,183.84z"/>
  <path class="fil4" d="M11243.78 17221.47c48.59,29.61 542.93,13.67 665.85,13.76 187.8,0.12 911.45,9.19 1148.83,-2.84l7.25 -192.04c-218.93,-3.33 -1789.81,-13.95 -1816.99,5.07 -30.97,21.66 -17,151.97 -4.94,176.05z"/>
  <path class="fil7" d="M8759.49 17219.71c2.42,1.85 6.63,0.77 8.07,4.3 5.69,13.97 97,10.71 111.72,10.62l1672.52 -0.14c3.96,-0.56 7.02,-1.12 10.67,-1.85 3.47,-0.69 6.94,-1.92 9.95,-2.68 2.92,-0.74 7.1,-2.66 9.39,-3.35 2.26,-0.66 6.25,-2.08 9.11,-3.69l7.23 -176.49c-445.88,-23 -1149.43,-9.88 -1646.01,-9.84 -35.51,0.02 -165.97,-7.67 -188.56,7.99 -30.7,21.28 -18.49,150.66 -4.09,175.13z"/>
  <path class="fil4" d="M17955.27 17230.95l6.25 -189.64c-154.82,-13.6 -1732.64,-14.71 -1792.33,4.5 -7.34,37.73 -6.45,78.39 -5.7,117.26 1.99,103.33 13.56,71.96 303.57,71.89 213.58,-0.05 1380.28,9.15 1488.21,-4.01z"/>
  <path class="fil4" d="M15534.8 17222.04c20,-49.33 6.65,-194.99 -7.16,-172.78l-902.95 -12.74c-138.06,-0.49 -852.26,-19.35 -925.2,12.08 -5.28,36.75 -5.12,76.66 -5.46,114.34 -0.93,103.74 4.19,71.92 312.5,71.93l1467.46 0.04c45.5,-2.26 29.82,5.01 60.81,-12.87z"/>
  <path class="fil4" d="M3821.57 17231.88l1819.07 2.98c15.62,-61.27 11.32,-134.16 2.55,-193.22l-1817.7 -4.07 -3.92 194.31z"/>
  <path class="fil7" d="M18574.06 17231.68c141.13,15.24 1669.89,11.35 1715.13,-5.13 15.35,-43.34 13.59,-128.01 4.34,-182.71 -87.97,-15.43 -716.63,-7.28 -856.86,-7.35 -246.81,-0.15 -628.16,-22.56 -859.23,5.31l-3.38 189.88z"/>
  <path class="fil4" d="M20919.12 17161.77c0.11,91.38 -15.43,73.26 226.58,73.26 26.24,0 1492.04,12.4 1516.18,-10.25 18.29,-37.18 13.66,-127.17 6.7,-180.47 -141.32,-3.58 -1619.14,-18.93 -1706.44,-7.37 -55.26,7.32 -43.17,-5.51 -43.02,124.83z"/>
  <path class="fil6" d="M23541.56 15840.61l8.77 89.77c45.75,15.58 773.45,23.87 855.74,10.23l30.89 -9.11c37.84,-12.58 21.59,-170.25 21.43,-212.85 -0.48,-128.49 -23.11,-101.54 -246.12,-101.77l-448.47 1.1c-255.47,0.05 -223.13,-32.03 -222.24,222.63z"/>
 </g>
</svg>
