<?xml version="1.0" encoding="UTF-8"?>
<!DOCTYPE svg PUBLIC "-//W3C//DTD SVG 1.1//EN" "http://www.w3.org/Graphics/SVG/1.1/DTD/svg11.dtd">
<!-- Creator: CorelDRAW -->
<svg xmlns="http://www.w3.org/2000/svg" xml:space="preserve" width="270.933mm" height="270.933mm" version="1.1" style="shape-rendering:geometricPrecision; text-rendering:geometricPrecision; image-rendering:optimizeQuality; fill-rule:evenodd; clip-rule:evenodd"
viewBox="0 0 27093.32 27093.32"
 xmlns:xlink="http://www.w3.org/1999/xlink"
 xmlns:xodm="http://www.corel.com/coreldraw/odm/2003">
 <defs>
  <style type="text/css">
   <![CDATA[
    .str1 {stroke:#3A4158;stroke-width:26.45;stroke-miterlimit:22.9256}
    .str0 {stroke:#3A4158;stroke-width:423.33;stroke-miterlimit:22.9256}
    .fil1 {fill:none}
    .fil2 {fill:#3A4158}
    .fil0 {fill:white}
   ]]>
  </style>
 </defs>
 <g id="Camada_x0020_1">
  <metadata id="CorelCorpID_0Corel-Layer"/>
  <path class="fil0 str0" d="M22260.01 8261.09l-20623.51 0 0.01 4226.13 23925.17 0 -3301.67 -4226.13zm3654.04 4677.17l572.09 732.27 -6423.72 5916.58 -2498.72 0 7.39 -6637.45 0 -11.4 8342.96 0zm-8879.39 0l0 6648.85 -8118.33 0 0 -6648.85 8118.33 0zm-8647.37 6648.85l-1172.29 0 -5224.1 -6648.85 6396.39 0 0 6648.85zm88.38 -10541.09l12544.21 24.91 1147.23 1485.27 -13638.48 -44.33 -52.96 -1465.85zm-2797.28 4.19l-3288.74 0 0 1461.66 3288.74 0 0 -1461.66zm12300.39 2041.14c250.66,0 453.85,204.49 453.85,456.75 0,252.25 -203.19,456.74 -453.85,456.74 -250.65,0 -453.84,-204.49 -453.84,-456.74 0,-252.26 203.19,-456.75 453.84,-456.75zm-10095.06 -50.32c250.66,0 453.84,204.49 453.84,456.74 0,252.26 -203.18,456.75 -453.84,456.75 -250.65,0 -453.84,-204.49 -453.84,-456.75 0,-252.25 203.19,-456.74 453.84,-456.74z"/>
  <g>
   <path class="fil0" d="M17008.59 12633.06l3.76 65.74 -3.76 -65.74zm529.04 6954.05l-529.04 0 529.04 0z"/>
   <path id="_1" class="fil1 str0" d="M17008.59 12633.06l3.76 65.74m525.28 6888.31l-529.04 0 529.04 0z"/>
  </g>
  <rect class="fil2" x="2389.65" y="9050.21" width="3288.74" height="1461.66"/>
  <polygon class="fil2" points="7997.28,8819.1 22062.81,8819.1 23590.46,10781.23 7997.28,10812.22 "/>
  <ellipse class="fil2" cx="7732.67" cy="11430.26" rx="472.47" ry="389.96"/>
  <ellipse class="fil2" cx="17978.78" cy="11548.09" rx="321.43" ry="322.45"/>
  <polygon class="fil2" points="1445.2,12503.17 25799.34,12463.31 26003.27,12708.47 26167,12923.92 1787.97,13017.93 1600.12,12799.4 "/>
  <rect class="fil2" x="8401.19" y="12424.98" width="461.39" height="7376.82"/>
  <rect class="fil2 str1" x="17008.59" y="12633.06" width="529.04" height="6954.05"/>
 </g>
</svg>
