<?xml version="1.0" encoding="iso-8859-1"?>
<!-- Uploaded to: SVG Repo, www.svgrepo.com, Generator: SVG Repo Mixer Tools -->
<svg fill="#000000" height="800px" width="800px" version="1.1" id="Layer_1" xmlns="http://www.w3.org/2000/svg" xmlns:xlink="http://www.w3.org/1999/xlink" 
	 viewBox="0 0 512 512" xml:space="preserve">
<g>
	<g>
		<path d="M281.207,306.15c-1.323-16.12-5.06-27.938-10.231-37.137c8.107-12.117,11.656-27.136,9.762-44.314
			c-5.914-53.154-52.053-57.822-85.734-61.227c-15.949-1.621-32.435-3.302-37.666-9.404c-2.978-3.473-7.586-5.052-12.015-4.275
			c-4.471,0.828-8.183,3.951-9.737,8.226c-10.624,29.175-12.254,74.547,9.259,105.276c10.453,14.925,30.899,32.7,69.009,32.7
			c14.438,0,26.888-3.268,37.316-9.003c2.202,5.581,3.772,12.331,4.506,21.257c0.546,6.673,6.153,11.75,12.749,11.75
			c0.35,0,0.7-0.026,1.067-0.051C276.531,319.377,281.779,313.199,281.207,306.15z M252.928,248.747
			c-5.666-4.292-11.674-7.893-17.672-11.366c-11.588-6.699-23.578-13.628-34.261-27.179c-4.361-5.521-12.416-6.477-17.971-2.125
			c-5.547,4.378-6.502,12.425-2.125,17.971c13.722,17.399,28.501,25.95,41.54,33.502c4.429,2.56,8.414,4.898,12.015,7.347
			c-5.845,2.27-12.715,3.507-20.574,3.507c-21.751,0-37.914-7.322-48.034-21.777c-12.425-17.749-14.49-44.203-10.377-66.304
			c10.735,3.951,23.629,5.248,36.966,6.596c36.872,3.746,59.503,8.201,62.874,38.596
			C256.188,235.597,255.249,242.671,252.928,248.747z"/>
	</g>
</g>
<g>
	<g>
		<path d="M510.174,259.302l-51.2-128.009c-3.891-9.719-13.303-16.094-23.774-16.094H384V89.6h-25.6v25.6h-25.6h-0.008V89.6
			c0-14.14-11.46-25.6-25.6-25.6H76.8c-9.694,0-18.56,5.478-22.895,14.148l-51.2,102.4C0.93,184.107,0,188.023,0,192v179.2
			c0,14.14,11.46,25.6,25.6,25.6h52.497c5.948,29.175,31.795,51.2,62.703,51.2c30.908,0,56.755-22.025,62.703-51.2
			c0,0,124.518,0,129.297,0h1.297c5.948,29.175,31.795,51.2,62.703,51.2s56.755-22.025,62.703-51.2H486.4
			c14.14,0,25.6-11.46,25.6-25.6V268.809C512,265.557,511.377,262.323,510.174,259.302z M64.666,213.547
			c-0.444,1.331-0.666,2.705-0.666,4.079L64.299,371.2H25.6V192L76.8,89.6h29.175L64.666,213.547z M140.8,422.4
			c-21.205,0-38.4-17.195-38.4-38.4c0-21.205,17.195-38.4,38.4-38.4c21.205,0,38.4,17.195,38.4,38.4
			C179.2,405.205,162.005,422.4,140.8,422.4z M203.503,371.2c-5.948-29.175-31.795-51.2-62.703-51.2
			c-20.872,0-39.262,10.189-50.953,25.702L89.6,219.674L132.958,89.6h174.234l0.009,281.6H203.503z M332.8,140.8h102.4
			l42.487,106.223l-64.99-16.247L332.8,230.4V140.8z M396.8,422.4c-21.205,0-38.4-17.195-38.4-38.4c0-21.205,17.195-38.4,38.4-38.4
			c21.205,0,38.4,17.195,38.4,38.4C435.2,405.205,418.005,422.4,396.8,422.4z M486.4,294.4h-25.6V320h25.6v51.2h-26.897
			c-5.948-29.175-31.795-51.2-62.703-51.2c-30.908,0-56.755,22.025-62.703,51.2H332.8V256h75.221l78.379,19.601V294.4z"/>
	</g>
</g>
</svg>